<svg viewBox="0 0 900 540" xmlns="http://www.w3.org/2000/svg" font-family="system-ui,-apple-system,Arial,sans-serif">
<defs>
  <marker id="ag" markerWidth="8" markerHeight="6" refX="7" refY="3" orient="auto"><polygon points="0 0,8 3,0 6" fill="#2f9e44"/></marker>
  <marker id="ab" markerWidth="8" markerHeight="6" refX="7" refY="3" orient="auto"><polygon points="0 0,8 3,0 6" fill="#1971c2"/></marker>
  <marker id="ao" markerWidth="8" markerHeight="6" refX="7" refY="3" orient="auto"><polygon points="0 0,8 3,0 6" fill="#e67700"/></marker>
  <marker id="ay" markerWidth="8" markerHeight="6" refX="7" refY="3" orient="auto"><polygon points="0 0,8 3,0 6" fill="#f59f00"/></marker>
</defs>
<rect width="900" height="540" fill="#f8f9fa" rx="10"/>
<text x="450" y="34" text-anchor="middle" font-size="17" font-weight="700" fill="#212529">Martha 2.0 — Automated Fruiting Chamber System</text>
<rect x="130" y="105" width="265" height="285" rx="6" fill="#f4fce3" stroke="#2f9e44" stroke-width="2.5"/>
<text x="262" y="96" text-anchor="middle" font-size="13" font-weight="700" fill="#2f9e44">MARTHA TENT</text>
<line x1="138" y1="155" x2="387" y2="155" stroke="#94d82d" stroke-width="1" stroke-dasharray="5,3"/>
<text x="144" y="151" font-size="9" fill="#5c940d">Shelf 4</text>
<line x1="138" y1="205" x2="387" y2="205" stroke="#94d82d" stroke-width="1" stroke-dasharray="5,3"/>
<text x="144" y="201" font-size="9" fill="#5c940d">Shelf 3</text>
<line x1="138" y1="255" x2="387" y2="255" stroke="#94d82d" stroke-width="1" stroke-dasharray="5,3"/>
<text x="144" y="251" font-size="9" fill="#5c940d">Shelf 2</text>
<line x1="138" y1="305" x2="387" y2="305" stroke="#94d82d" stroke-width="1" stroke-dasharray="5,3"/>
<text x="144" y="301" font-size="9" fill="#5c940d">Shelf 1</text>
<rect x="168" y="158" width="55" height="40" rx="3" fill="#b2f2bb" stroke="#51cf66" stroke-width="1"/>
<rect x="233" y="158" width="55" height="40" rx="3" fill="#b2f2bb" stroke="#51cf66" stroke-width="1"/>
<rect x="298" y="158" width="70" height="40" rx="3" fill="#b2f2bb" stroke="#51cf66" stroke-width="1"/>
<rect x="168" y="208" width="55" height="40" rx="3" fill="#b2f2bb" stroke="#51cf66" stroke-width="1"/>
<rect x="233" y="208" width="55" height="40" rx="3" fill="#b2f2bb" stroke="#51cf66" stroke-width="1"/>
<rect x="298" y="208" width="70" height="40" rx="3" fill="#b2f2bb" stroke="#51cf66" stroke-width="1"/>
<rect x="168" y="258" width="55" height="40" rx="3" fill="#b2f2bb" stroke="#51cf66" stroke-width="1"/>
<rect x="233" y="258" width="55" height="40" rx="3" fill="#b2f2bb" stroke="#51cf66" stroke-width="1"/>
<rect x="298" y="258" width="70" height="40" rx="3" fill="#b2f2bb" stroke="#51cf66" stroke-width="1"/>
<rect x="168" y="308" width="55" height="40" rx="3" fill="#b2f2bb" stroke="#51cf66" stroke-width="1"/>
<rect x="233" y="308" width="55" height="40" rx="3" fill="#b2f2bb" stroke="#51cf66" stroke-width="1"/>
<rect x="298" y="308" width="70" height="40" rx="3" fill="#b2f2bb" stroke="#51cf66" stroke-width="1"/>
<rect x="138" y="342" width="249" height="40" rx="3" fill="#a5d8ff" stroke="#339af0" stroke-width="1.5"/>
<text x="262" y="366" text-anchor="middle" font-size="10" fill="#1864ab">Drip Tray + 6-mil plastic liner</text>
<line x1="380" y1="160" x2="380" y2="192" stroke="#e67700" stroke-width="1" stroke-dasharray="3,3" opacity="0.5" marker-end="url(#ao)"/>
<line x1="380" y1="210" x2="380" y2="242" stroke="#e67700" stroke-width="1" stroke-dasharray="3,3" opacity="0.5" marker-end="url(#ao)"/>
<line x1="380" y1="260" x2="380" y2="292" stroke="#e67700" stroke-width="1" stroke-dasharray="3,3" opacity="0.5" marker-end="url(#ao)"/>
<line x1="380" y1="310" x2="380" y2="342" stroke="#e67700" stroke-width="1" stroke-dasharray="3,3" opacity="0.5" marker-end="url(#ao)"/>
<rect x="545" y="105" width="200" height="230" rx="8" fill="#e7f5ff" stroke="#339af0" stroke-width="2"/>
<text x="645" y="96" text-anchor="middle" font-size="11" font-weight="700" fill="#1864ab">19-GAL RESERVOIR</text>
<rect x="551" y="113" width="188" height="13" rx="3" fill="#ffd43b" stroke="#fab005" stroke-width="1"/>
<text x="645" y="124" text-anchor="middle" font-size="8.5" fill="#5c3d00">UVC lights: 1hr ON / 4hr OFF</text>
<rect x="551" y="250" width="188" height="75" rx="0" fill="#74c0fc" opacity="0.4"/>
<text x="645" y="282" text-anchor="middle" font-size="10" fill="#1864ab">tap water</text>
<text x="645" y="296" text-anchor="middle" font-size="9" fill="#1864ab">(+H₂O₂ weekly)</text>
<ellipse cx="645" cy="317" rx="68" ry="13" fill="#339af0" opacity="0.75"/>
<text x="645" y="321" text-anchor="middle" font-size="9" fill="white" font-weight="600">HoH 5-disc fogger</text>
<rect x="585" y="53" width="120" height="38" rx="5" fill="#e9ecef" stroke="#868e96" stroke-width="1.5"/>
<text x="645" y="68" text-anchor="middle" font-size="10" font-weight="600" fill="#495057">Computer Fan</text>
<text x="645" y="81" text-anchor="middle" font-size="9" fill="#868e96">blows DOWN into tub</text>
<line x1="645" y1="91" x2="645" y2="109" stroke="#339af0" stroke-width="1.5" marker-end="url(#ab)"/>
<line x1="625" y1="260" x2="625" y2="238" stroke="#74c0fc" stroke-width="1.5" stroke-dasharray="3,2" marker-end="url(#ab)" opacity="0.7"/>
<line x1="665" y1="260" x2="665" y2="238" stroke="#74c0fc" stroke-width="1.5" stroke-dasharray="3,2" marker-end="url(#ab)" opacity="0.7"/>
<line x1="625" y1="230" x2="625" y2="208" stroke="#74c0fc" stroke-width="1.5" stroke-dasharray="3,2" marker-end="url(#ab)" opacity="0.7"/>
<line x1="665" y1="230" x2="665" y2="208" stroke="#74c0fc" stroke-width="1.5" stroke-dasharray="3,2" marker-end="url(#ab)" opacity="0.7"/>
<line x1="625" y1="200" x2="625" y2="178" stroke="#74c0fc" stroke-width="1.5" stroke-dasharray="3,2" marker-end="url(#ab)" opacity="0.7"/>
<line x1="665" y1="200" x2="665" y2="178" stroke="#74c0fc" stroke-width="1.5" stroke-dasharray="3,2" marker-end="url(#ab)" opacity="0.7"/>
<rect x="395" y="143" width="150" height="20" rx="3" fill="#a5d8ff" stroke="#339af0" stroke-width="1.5"/>
<text x="470" y="156" text-anchor="middle" font-size="8.5" fill="#1864ab">4" flex duct (slight ↑ angle)</text>
<line x1="537" y1="153" x2="407" y2="153" stroke="#1971c2" stroke-width="1.5" stroke-dasharray="5,3" marker-end="url(#ab)"/>
<circle cx="397" cy="153" r="8" fill="#a5d8ff" stroke="#339af0" stroke-width="1.5"/>
<text x="397" y="157" text-anchor="middle" font-size="9" fill="#1864ab">⌐</text>
<text x="391" y="139" text-anchor="end" font-size="9" fill="#1864ab">← fog enters top-right</text>
<rect x="390" y="45" width="115" height="38" rx="5" fill="#e9ecef" stroke="#868e96" stroke-width="1.5"/>
<text x="447" y="60" text-anchor="middle" font-size="10" font-weight="600" fill="#495057">4" Computer Fan</text>
<text x="447" y="74" text-anchor="middle" font-size="9" fill="#868e96">FAE intake (top-right)</text>
<text x="515" y="53" font-size="11" fill="#2f9e44" font-weight="600">Room Air ↓</text>
<line x1="447" y1="83" x2="447" y2="107" stroke="#2f9e44" stroke-width="2" marker-end="url(#ag)"/>
<rect x="18" y="408" width="112" height="50" rx="5" fill="#fff9db" stroke="#ffd43b" stroke-width="1.5"/>
<text x="74" y="424" text-anchor="middle" font-size="10" font-weight="600" fill="#5c3d00">AC Infinity S4</text>
<text x="74" y="437" text-anchor="middle" font-size="9" fill="#7c4e00">4" inline duct fan</text>
<text x="74" y="449" text-anchor="middle" font-size="9" fill="#7c4e00">buy 2 — swap to clean</text>
<line x1="138" y1="390" x2="74" y2="408" stroke="#e67700" stroke-width="2.5" marker-end="url(#ao)"/>
<text x="160" y="402" font-size="9" fill="#e67700">CO₂-rich air out</text>
<line x1="74" y1="458" x2="74" y2="480" stroke="#868e96" stroke-width="3"/>
<line x1="74" y1="480" x2="22" y2="480" stroke="#868e96" stroke-width="3" marker-end="url(#ao)"/>
<text x="26" y="496" font-size="10" fill="#495057">flex duct → HVAC → outside</text>
<rect x="18" y="280" width="112" height="60" rx="5" fill="#fff3cd" stroke="#ffc107" stroke-width="1.5"/>
<text x="74" y="295" text-anchor="middle" font-size="10" font-weight="600" fill="#856404">CO₂ Controller</text>
<text x="74" y="310" text-anchor="middle" font-size="9" fill="#856404">On: 950 ppm</text>
<text x="74" y="323" text-anchor="middle" font-size="9" fill="#856404">Off: 650 ppm</text>
<text x="74" y="336" text-anchor="middle" font-size="9" fill="#856404">~1–2 min FAE cycle</text>
<line x1="74" y1="340" x2="74" y2="408" stroke="#ffc107" stroke-width="1.5" stroke-dasharray="3,3"/>
<rect x="545" y="353" width="200" height="55" rx="5" fill="#fff3cd" stroke="#ffc107" stroke-width="1.5"/>
<text x="645" y="369" text-anchor="middle" font-size="10" font-weight="600" fill="#856404">Inkbird IHC200</text>
<text x="645" y="383" text-anchor="middle" font-size="9" fill="#856404">setpoint: 85% RH, 2% offset</text>
<text x="645" y="397" text-anchor="middle" font-size="9" fill="#856404">controls fogger + tub fan together</text>
<line x1="645" y1="353" x2="645" y2="335" stroke="#ffc107" stroke-width="1.5" stroke-dasharray="3,3"/>
<rect x="545" y="418" width="200" height="42" rx="5" fill="#f3f0ff" stroke="#845ef7" stroke-width="1.5"/>
<text x="645" y="434" text-anchor="middle" font-size="10" font-weight="600" fill="#5f3dc4">Inkbird IBS-TH2 Plus</text>
<text x="645" y="448" text-anchor="middle" font-size="9" fill="#5f3dc4">RH/temp monitor + phone data logging</text>
<rect x="680" y="420" width="200" height="100" rx="5" fill="white" stroke="#dee2e6" stroke-width="1"/>
<text x="780" y="436" text-anchor="middle" font-size="11" font-weight="600" fill="#495057">Legend</text>
<line x1="692" y1="452" x2="720" y2="452" stroke="#2f9e44" stroke-width="2" marker-end="url(#ag)"/>
<text x="728" y="456" font-size="10" fill="#2f9e44">Fresh air in (FAE)</text>
<line x1="692" y1="470" x2="720" y2="470" stroke="#1971c2" stroke-width="2" stroke-dasharray="5,3" marker-end="url(#ab)"/>
<text x="728" y="474" font-size="10" fill="#1971c2">Fog / humidity</text>
<line x1="692" y1="488" x2="720" y2="488" stroke="#e67700" stroke-width="2" marker-end="url(#ao)"/>
<text x="728" y="492" font-size="10" fill="#e67700">CO₂-rich air out (FAE)</text>
<line x1="692" y1="506" x2="720" y2="506" stroke="#ffc107" stroke-width="2" stroke-dasharray="3,3" marker-end="url(#ay)"/>
<text x="728" y="510" font-size="10" fill="#ffc107">Controller signal</text>
</svg>