<svg xmlns="http://www.w3.org/2000/svg" xmlns:xlink="http://www.w3.org/1999/xlink" xmlns:s="https://github.com/nturley/netlistsvg" width="722.06" height="508">
  <style>svg {
    stroke: #000;
    fill: none;
    stroke-linejoin: round;
    stroke-linecap: round;
  }
  text {
    fill: #000;
    stroke: none;
    font-size: 10px;
    font-weight: bold;
    font-family: "Courier New", monospace;
  }
  .skidl_text {
    fill: #999;
    stroke: none;
    font-weight: bold;
    font-family: consolas, "Courier New", monospace;
  }
  .pin_num_text {
      fill: #840000;
  }
  .pin_name_text {
      fill: #008484;
  }
  .net_name_text {
      font-style: italic;
      fill: #840084;
  }
  .part_text {
      fill: #840000;
  }
  .part_ref_text {
      fill: #008484;
  }
  .part_name_text {
      fill: #008484;
  }
  .pen_fill {
      fill: #840000;
  }
  .background_fill {
      fill: #FFFFC2
  }
  .nodelabel {
    text-anchor: middle;
  }
  .inputPortLabel {
    text-anchor: end;
  }
  .splitjoinBody {
    fill: #000;
  }
  .symbol {
    stroke-linejoin: round;
    stroke-linecap: round;
    stroke: #840000;
  }
  .detail {
    stroke-linejoin: round;
    stroke-linecap: round;
    fill: #000;
  }</style>
  <g s:type="generic" s:width="30" s:height="40" transform="translate(650.04,52)" id="cell_F1">
    <text x="15" y="-4" class="nodelabel cell_F1" s:attribute="ref">FUSE_5A</text>
    <rect width="30" height="20" x="0" y="0" s:generic="body" class="cell_F1"/>
    <g transform="translate(0,10)" s:x="0" s:y="10" s:pid="in0" s:position="left" id="port_F1~IN">
      <text x="-3" y="-4" class="inputPortLabel cell_F1">IN</text>
    </g>
    <g transform="translate(30,10)" s:x="30" s:y="10" s:pid="out0" s:position="right" id="port_F1~OUT">
      <text x="5" y="-4" class="cell_F1">OUT</text>
    </g>
  </g>
  <g s:type="generic" s:width="30" s:height="40" transform="translate(587.04,22)" id="cell_J1">
    <text x="15" y="-4" class="nodelabel cell_J1" s:attribute="ref">FOGGER</text>
    <rect width="30" height="40" x="0" y="0" s:generic="body" class="cell_J1"/>
    <g transform="translate(0,10)" s:x="0" s:y="10" s:pid="in0" s:position="left" id="port_J1~L_IN">
      <text x="-3" y="-4" class="inputPortLabel cell_J1">L_IN</text>
    </g>
    <g transform="translate(0,30)" s:x="0" s:y="10" s:pid="in0" s:position="left" id="port_J1~N_IN">
      <text x="-3" y="-4" class="inputPortLabel cell_J1">N_IN</text>
    </g>
  </g>
  <g s:type="generic" s:width="30" s:height="40" transform="translate(97.03999999999996,115)" id="cell_U1">
    <text x="15" y="-4" class="nodelabel cell_U1" s:attribute="ref">GFCI_RCD</text>
    <rect width="30" height="60" x="0" y="0" s:generic="body" class="cell_U1"/>
    <g transform="translate(0,10)" s:x="0" s:y="10" s:pid="in0" s:position="left" id="port_U1~L_IN">
      <text x="-3" y="-4" class="inputPortLabel cell_U1">L_IN</text>
    </g>
    <g transform="translate(0,30)" s:x="0" s:y="10" s:pid="in0" s:position="left" id="port_U1~N_IN">
      <text x="-3" y="-4" class="inputPortLabel cell_U1">N_IN</text>
    </g>
    <g transform="translate(0,50)" s:x="0" s:y="10" s:pid="in0" s:position="left" id="port_U1~PE_IN">
      <text x="-3" y="-4" class="inputPortLabel cell_U1">PE_IN</text>
    </g>
    <g transform="translate(30,10)" s:x="30" s:y="10" s:pid="out0" s:position="right" id="port_U1~L_OUT">
      <text x="5" y="-4" class="cell_U1">L_OUT</text>
    </g>
    <g transform="translate(30,30)" s:x="30" s:y="10" s:pid="out0" s:position="right" id="port_U1~N_OUT">
      <text x="5" y="-4" class="cell_U1">N_OUT</text>
    </g>
    <g transform="translate(30,50)" s:x="30" s:y="10" s:pid="out0" s:position="right" id="port_U1~PE_OUT">
      <text x="5" y="-4" class="cell_U1">PE_OUT</text>
    </g>
  </g>
  <g s:type="generic" s:width="30" s:height="40" transform="translate(228.03999999999996,167.5)" id="cell_U2">
    <text x="15" y="-4" class="nodelabel cell_U2" s:attribute="ref">PSU_5V3A</text>
    <rect width="30" height="60" x="0" y="0" s:generic="body" class="cell_U2"/>
    <g transform="translate(0,10)" s:x="0" s:y="10" s:pid="in0" s:position="left" id="port_U2~L">
      <text x="-3" y="-4" class="inputPortLabel cell_U2">L</text>
    </g>
    <g transform="translate(0,30)" s:x="0" s:y="10" s:pid="in0" s:position="left" id="port_U2~N">
      <text x="-3" y="-4" class="inputPortLabel cell_U2">N</text>
    </g>
    <g transform="translate(0,50)" s:x="0" s:y="10" s:pid="in0" s:position="left" id="port_U2~PE">
      <text x="-3" y="-4" class="inputPortLabel cell_U2">PE</text>
    </g>
    <g transform="translate(30,10)" s:x="30" s:y="10" s:pid="out0" s:position="right" id="port_U2~+5V_OUT">
      <text x="5" y="-4" class="cell_U2">+5V_OUT</text>
    </g>
    <g transform="translate(30,30)" s:x="30" s:y="10" s:pid="out0" s:position="right" id="port_U2~GND_OUT">
      <text x="5" y="-4" class="cell_U2">GND_OUT</text>
    </g>
  </g>
  <g s:type="generic" s:width="30" s:height="40" transform="translate(92.03999999999996,270.5)" id="cell_U3">
    <text x="15" y="-4" class="nodelabel cell_U3" s:attribute="ref">PSU_12V1A</text>
    <rect width="30" height="60" x="0" y="0" s:generic="body" class="cell_U3"/>
    <g transform="translate(0,10)" s:x="0" s:y="10" s:pid="in0" s:position="left" id="port_U3~L">
      <text x="-3" y="-4" class="inputPortLabel cell_U3">L</text>
    </g>
    <g transform="translate(0,30)" s:x="0" s:y="10" s:pid="in0" s:position="left" id="port_U3~N">
      <text x="-3" y="-4" class="inputPortLabel cell_U3">N</text>
    </g>
    <g transform="translate(0,50)" s:x="0" s:y="10" s:pid="in0" s:position="left" id="port_U3~PE">
      <text x="-3" y="-4" class="inputPortLabel cell_U3">PE</text>
    </g>
    <g transform="translate(30,10)" s:x="30" s:y="10" s:pid="out0" s:position="right" id="port_U3~+12V_OUT">
      <text x="5" y="-4" class="cell_U3">+12V_OUT</text>
    </g>
    <g transform="translate(30,30)" s:x="30" s:y="10" s:pid="out0" s:position="right" id="port_U3~GND_OUT">
      <text x="5" y="-4" class="cell_U3">GND_OUT</text>
    </g>
  </g>
  <g s:type="generic" s:width="30" s:height="40" transform="translate(399.03999999999996,260.5)" id="cell_U4">
    <text x="15" y="-4" class="nodelabel cell_U4" s:attribute="ref">ESP32S3</text>
    <rect width="30" height="120" x="0" y="0" s:generic="body" class="cell_U4"/>
    <g transform="translate(0,10)" s:x="0" s:y="10" s:pid="in0" s:position="left" id="port_U4~3V3_IN">
      <text x="-3" y="-4" class="inputPortLabel cell_U4">3V3_IN</text>
    </g>
    <g transform="translate(0,30)" s:x="0" s:y="10" s:pid="in0" s:position="left" id="port_U4~GND">
      <text x="-3" y="-4" class="inputPortLabel cell_U4">GND</text>
    </g>
    <g transform="translate(0,50)" s:x="0" s:y="10" s:pid="in0" s:position="left" id="port_U4~GPIO21_SDA">
      <text x="-3" y="-4" class="inputPortLabel cell_U4">GPIO21_SDA</text>
    </g>
    <g transform="translate(0,70)" s:x="0" s:y="10" s:pid="in0" s:position="left" id="port_U4~GPIO9_SCL">
      <text x="-3" y="-4" class="inputPortLabel cell_U4">GPIO9_SCL</text>
    </g>
    <g transform="translate(0,90)" s:x="0" s:y="10" s:pid="in0" s:position="left" id="port_U4~GPIO38_REL1">
      <text x="-3" y="-4" class="inputPortLabel cell_U4">GPIO38_REL1</text>
    </g>
    <g transform="translate(0,110)" s:x="0" s:y="10" s:pid="in0" s:position="left" id="port_U4~GPIO39_REL2">
      <text x="-3" y="-4" class="inputPortLabel cell_U4">GPIO39_REL2</text>
    </g>
  </g>
  <g s:type="generic" s:width="30" s:height="40" transform="translate(486.03999999999996,393)" id="cell_U5">
    <text x="15" y="-4" class="nodelabel cell_U5" s:attribute="ref">RELAY_8CH</text>
    <rect width="30" height="100" x="0" y="0" s:generic="body" class="cell_U5"/>
    <g transform="translate(0,10)" s:x="0" s:y="10" s:pid="in0" s:position="left" id="port_U5~VCC">
      <text x="-3" y="-4" class="inputPortLabel cell_U5">VCC</text>
    </g>
    <g transform="translate(0,30)" s:x="0" s:y="10" s:pid="in0" s:position="left" id="port_U5~GND">
      <text x="-3" y="-4" class="inputPortLabel cell_U5">GND</text>
    </g>
    <g transform="translate(0,50)" s:x="0" s:y="10" s:pid="in0" s:position="left" id="port_U5~JD_VCC">
      <text x="-3" y="-4" class="inputPortLabel cell_U5">JD_VCC</text>
    </g>
    <g transform="translate(0,70)" s:x="0" s:y="10" s:pid="in0" s:position="left" id="port_U5~IN1">
      <text x="-3" y="-4" class="inputPortLabel cell_U5">IN1</text>
    </g>
    <g transform="translate(0,90)" s:x="0" s:y="10" s:pid="in0" s:position="left" id="port_U5~IN2">
      <text x="-3" y="-4" class="inputPortLabel cell_U5">IN2</text>
    </g>
    <g transform="translate(30,10)" s:x="30" s:y="10" s:pid="out0" s:position="right" id="port_U5~COM1">
      <text x="5" y="-4" class="cell_U5">COM1</text>
    </g>
    <g transform="translate(30,30)" s:x="30" s:y="10" s:pid="out0" s:position="right" id="port_U5~NO1">
      <text x="5" y="-4" class="cell_U5">NO1</text>
    </g>
  </g>
  <g s:type="generic" s:width="30" s:height="40" transform="translate(241.03999999999996,351)" id="cell_U6">
    <text x="15" y="-4" class="nodelabel cell_U6" s:attribute="ref">SCD30</text>
    <rect width="30" height="100" x="0" y="0" s:generic="body" class="cell_U6"/>
    <g transform="translate(0,10)" s:x="0" s:y="10" s:pid="in0" s:position="left" id="port_U6~VDD">
      <text x="-3" y="-4" class="inputPortLabel cell_U6">VDD</text>
    </g>
    <g transform="translate(0,30)" s:x="0" s:y="10" s:pid="in0" s:position="left" id="port_U6~GND">
      <text x="-3" y="-4" class="inputPortLabel cell_U6">GND</text>
    </g>
    <g transform="translate(0,50)" s:x="0" s:y="10" s:pid="in0" s:position="left" id="port_U6~SCL">
      <text x="-3" y="-4" class="inputPortLabel cell_U6">SCL</text>
    </g>
    <g transform="translate(0,70)" s:x="0" s:y="10" s:pid="in0" s:position="left" id="port_U6~SDA">
      <text x="-3" y="-4" class="inputPortLabel cell_U6">SDA</text>
    </g>
    <g transform="translate(0,90)" s:x="0" s:y="10" s:pid="in0" s:position="left" id="port_U6~SEL">
      <text x="-3" y="-4" class="inputPortLabel cell_U6">SEL</text>
    </g>
  </g>
  <line x1="650.04" x2="627.04" y1="62.5" y2="62.5" class="net_11"/>
  <line x1="627.04" x2="627.04" y1="62.5" y2="75" class="net_11"/>
  <line x1="627.04" x2="195.03999999999996" y1="75" y2="75" class="net_11"/>
  <line x1="195.03999999999996" x2="195.03999999999996" y1="75" y2="125.5" class="net_11"/>
  <line x1="195.03999999999996" x2="128.03999999999996" y1="125.5" y2="125.5" class="net_11"/>
  <line x1="681.04" x2="710.04" y1="62.5" y2="62.5" class="net_9"/>
  <line x1="710.04" x2="710.04" y1="62.5" y2="85" class="net_9"/>
  <line x1="710.04" x2="205.03999999999996" y1="85" y2="85" class="net_9"/>
  <line x1="205.03999999999996" x2="205.03999999999996" y1="85" y2="178" class="net_9"/>
  <circle cx="710.04" cy="85" r="2" style="fill:#000" class="net_9"/>
  <circle cx="205.03999999999996" cy="85" r="2" style="fill:#000" class="net_9"/>
  <line x1="205.03999999999996" x2="228.03999999999996" y1="178" y2="178" class="net_9"/>
  <line x1="681.04" x2="710.04" y1="62.5" y2="62.5" class="net_9"/>
  <line x1="710.04" x2="710.04" y1="62.5" y2="85" class="net_9"/>
  <line x1="710.04" x2="33.039999999999964" y1="85" y2="85" class="net_9"/>
  <line x1="33.039999999999964" x2="33.039999999999964" y1="85" y2="281" class="net_9"/>
  <line x1="33.039999999999964" x2="92.03999999999996" y1="281" y2="281" class="net_9"/>
  <line x1="681.04" x2="710.04" y1="62.5" y2="62.5" class="net_9"/>
  <line x1="710.04" x2="710.04" y1="62.5" y2="403.5" class="net_9"/>
  <line x1="710.04" x2="517.04" y1="403.5" y2="403.5" class="net_9"/>
  <line x1="587.04" x2="552.04" y1="32.5" y2="32.5" class="net_3"/>
  <line x1="552.04" x2="552.04" y1="32.5" y2="423.5" class="net_3"/>
  <line x1="552.04" x2="517.04" y1="423.5" y2="423.5" class="net_3"/>
  <line x1="587.04" x2="175.03999999999996" y1="52.5" y2="52.5" class="net_16"/>
  <line x1="175.03999999999996" x2="175.03999999999996" y1="52.5" y2="145.5" class="net_16"/>
  <line x1="175.03999999999996" x2="128.03999999999996" y1="145.5" y2="145.5" class="net_16"/>
  <line x1="587.04" x2="175.03999999999996" y1="52.5" y2="52.5" class="net_16"/>
  <line x1="175.03999999999996" x2="175.03999999999996" y1="52.5" y2="95" class="net_16"/>
  <line x1="175.03999999999996" x2="55.039999999999964" y1="95" y2="95" class="net_16"/>
  <line x1="55.039999999999964" x2="55.039999999999964" y1="95" y2="198" class="net_16"/>
  <circle cx="175.03999999999996" cy="95" r="2" style="fill:#000" class="net_16"/>
  <line x1="55.039999999999964" x2="228.03999999999996" y1="198" y2="198" class="net_16"/>
  <line x1="587.04" x2="175.03999999999996" y1="52.5" y2="52.5" class="net_16"/>
  <line x1="175.03999999999996" x2="175.03999999999996" y1="52.5" y2="95" class="net_16"/>
  <line x1="175.03999999999996" x2="55.039999999999964" y1="95" y2="95" class="net_16"/>
  <line x1="55.039999999999964" x2="55.039999999999964" y1="95" y2="188" class="net_16"/>
  <line x1="55.039999999999964" x2="44.039999999999964" y1="188" y2="188" class="net_16"/>
  <line x1="44.039999999999964" x2="44.039999999999964" y1="188" y2="301" class="net_16"/>
  <circle cx="55.039999999999964" cy="188" r="2" style="fill:#000" class="net_16"/>
  <line x1="44.039999999999964" x2="92.03999999999996" y1="301" y2="301" class="net_16"/>
  <line x1="128.03999999999996" x2="185.03999999999996" y1="165.5" y2="165.5" class="net_14"/>
  <line x1="185.03999999999996" x2="185.03999999999996" y1="165.5" y2="218" class="net_14"/>
  <line x1="185.03999999999996" x2="228.03999999999996" y1="218" y2="218" class="net_14"/>
  <line x1="128.03999999999996" x2="185.03999999999996" y1="165.5" y2="165.5" class="net_14"/>
  <line x1="185.03999999999996" x2="185.03999999999996" y1="165.5" y2="188" class="net_14"/>
  <line x1="185.03999999999996" x2="69.03999999999996" y1="188" y2="188" class="net_14"/>
  <line x1="69.03999999999996" x2="69.03999999999996" y1="188" y2="321" class="net_14"/>
  <circle cx="185.03999999999996" cy="188" r="2" style="fill:#000" class="net_14"/>
  <line x1="69.03999999999996" x2="92.03999999999996" y1="321" y2="321" class="net_14"/>
  <line x1="259.03999999999996" x2="439.03999999999996" y1="178" y2="178" class="net_15"/>
  <line x1="439.03999999999996" x2="439.03999999999996" y1="178" y2="240.5" class="net_15"/>
  <line x1="439.03999999999996" x2="322.03999999999996" y1="240.5" y2="240.5" class="net_15"/>
  <line x1="322.03999999999996" x2="322.03999999999996" y1="240.5" y2="271" class="net_15"/>
  <circle cx="439.03999999999996" cy="240.5" r="2" style="fill:#000" class="net_15"/>
  <circle cx="322.03999999999996" cy="240.5" r="2" style="fill:#000" class="net_15"/>
  <line x1="322.03999999999996" x2="399.03999999999996" y1="271" y2="271" class="net_15"/>
  <line x1="259.03999999999996" x2="439.03999999999996" y1="178" y2="178" class="net_15"/>
  <line x1="439.03999999999996" x2="439.03999999999996" y1="178" y2="403.5" class="net_15"/>
  <line x1="439.03999999999996" x2="486.03999999999996" y1="403.5" y2="403.5" class="net_15"/>
  <line x1="259.03999999999996" x2="439.03999999999996" y1="178" y2="178" class="net_15"/>
  <line x1="439.03999999999996" x2="439.03999999999996" y1="178" y2="393.5" class="net_15"/>
  <line x1="439.03999999999996" x2="429.03999999999996" y1="393.5" y2="393.5" class="net_15"/>
  <line x1="429.03999999999996" x2="429.03999999999996" y1="393.5" y2="443.5" class="net_15"/>
  <circle cx="439.03999999999996" cy="393.5" r="2" style="fill:#000" class="net_15"/>
  <line x1="429.03999999999996" x2="486.03999999999996" y1="443.5" y2="443.5" class="net_15"/>
  <line x1="259.03999999999996" x2="439.03999999999996" y1="178" y2="178" class="net_15"/>
  <line x1="439.03999999999996" x2="439.03999999999996" y1="178" y2="240.5" class="net_15"/>
  <line x1="439.03999999999996" x2="212.03999999999996" y1="240.5" y2="240.5" class="net_15"/>
  <line x1="212.03999999999996" x2="212.03999999999996" y1="240.5" y2="361.5" class="net_15"/>
  <line x1="212.03999999999996" x2="241.03999999999996" y1="361.5" y2="361.5" class="net_15"/>
  <line x1="259.03999999999996" x2="312.03999999999996" y1="198" y2="198" class="net_12"/>
  <line x1="312.03999999999996" x2="312.03999999999996" y1="198" y2="250.5" class="net_12"/>
  <line x1="312.03999999999996" x2="182.03999999999996" y1="250.5" y2="250.5" class="net_12"/>
  <line x1="182.03999999999996" x2="182.03999999999996" y1="250.5" y2="301" class="net_12"/>
  <circle cx="312.03999999999996" cy="250.5" r="2" style="fill:#000" class="net_12"/>
  <circle cx="182.03999999999996" cy="250.5" r="2" style="fill:#000" class="net_12"/>
  <line x1="182.03999999999996" x2="123.03999999999996" y1="301" y2="301" class="net_12"/>
  <line x1="259.03999999999996" x2="312.03999999999996" y1="198" y2="198" class="net_12"/>
  <line x1="312.03999999999996" x2="312.03999999999996" y1="198" y2="291" class="net_12"/>
  <line x1="312.03999999999996" x2="399.03999999999996" y1="291" y2="291" class="net_12"/>
  <line x1="259.03999999999996" x2="312.03999999999996" y1="198" y2="198" class="net_12"/>
  <line x1="312.03999999999996" x2="312.03999999999996" y1="198" y2="250.5" class="net_12"/>
  <line x1="312.03999999999996" x2="291.03999999999996" y1="250.5" y2="250.5" class="net_12"/>
  <line x1="291.03999999999996" x2="291.03999999999996" y1="250.5" y2="423.5" class="net_12"/>
  <circle cx="291.03999999999996" cy="250.5" r="2" style="fill:#000" class="net_12"/>
  <line x1="291.03999999999996" x2="486.03999999999996" y1="423.5" y2="423.5" class="net_12"/>
  <line x1="259.03999999999996" x2="312.03999999999996" y1="198" y2="198" class="net_12"/>
  <line x1="312.03999999999996" x2="312.03999999999996" y1="198" y2="250.5" class="net_12"/>
  <line x1="312.03999999999996" x2="22.039999999999964" y1="250.5" y2="250.5" class="net_12"/>
  <line x1="22.039999999999964" x2="22.039999999999964" y1="250.5" y2="381.5" class="net_12"/>
  <line x1="22.039999999999964" x2="241.03999999999996" y1="381.5" y2="381.5" class="net_12"/>
  <line x1="259.03999999999996" x2="312.03999999999996" y1="198" y2="198" class="net_12"/>
  <line x1="312.03999999999996" x2="312.03999999999996" y1="198" y2="250.5" class="net_12"/>
  <line x1="312.03999999999996" x2="22.039999999999964" y1="250.5" y2="250.5" class="net_12"/>
  <line x1="22.039999999999964" x2="22.039999999999964" y1="250.5" y2="371.5" class="net_12"/>
  <line x1="22.039999999999964" x2="12.039999999999964" y1="371.5" y2="371.5" class="net_12"/>
  <line x1="12.039999999999964" x2="12.039999999999964" y1="371.5" y2="441.5" class="net_12"/>
  <circle cx="22.039999999999964" cy="371.5" r="2" style="fill:#000" class="net_12"/>
  <line x1="12.039999999999964" x2="241.03999999999996" y1="441.5" y2="441.5" class="net_12"/>
  <line x1="399.03999999999996" x2="202.03999999999996" y1="311" y2="311" class="net_6"/>
  <line x1="202.03999999999996" x2="202.03999999999996" y1="311" y2="421.5" class="net_6"/>
  <line x1="202.03999999999996" x2="241.03999999999996" y1="421.5" y2="421.5" class="net_6"/>
  <line x1="399.03999999999996" x2="192.03999999999996" y1="331" y2="331" class="net_7"/>
  <line x1="192.03999999999996" x2="192.03999999999996" y1="331" y2="401.5" class="net_7"/>
  <line x1="192.03999999999996" x2="241.03999999999996" y1="401.5" y2="401.5" class="net_7"/>
  <line x1="399.03999999999996" x2="302.03999999999996" y1="351" y2="351" class="net_13"/>
  <line x1="302.03999999999996" x2="302.03999999999996" y1="351" y2="463.5" class="net_13"/>
  <line x1="302.03999999999996" x2="486.03999999999996" y1="463.5" y2="463.5" class="net_13"/>
  <line x1="399.03999999999996" x2="281.03999999999996" y1="371" y2="371" class="net_10"/>
  <line x1="281.03999999999996" x2="281.03999999999996" y1="371" y2="483.5" class="net_10"/>
  <line x1="281.03999999999996" x2="486.03999999999996" y1="483.5" y2="483.5" class="net_10"/>
</svg>
