<svg xmlns="http://www.w3.org/2000/svg" viewBox="0 0 1280 680" width="1280" height="680">
  <defs>
    <marker id="arrowA" markerWidth="10" markerHeight="7" refX="9" refY="3.5" orient="auto">
      <polygon points="0 0, 10 3.5, 0 7" fill="#c9c5b6"/>
    </marker>
    <marker id="arrowB" markerWidth="10" markerHeight="7" refX="9" refY="3.5" orient="auto">
      <polygon points="0 0, 10 3.5, 0 7" fill="#6fd1b4"/>
    </marker>
    <marker id="arrowC" markerWidth="10" markerHeight="7" refX="9" refY="3.5" orient="auto">
      <polygon points="0 0, 10 3.5, 0 7" fill="#c9c5b6"/>
    </marker>
    <marker id="arrowE" markerWidth="10" markerHeight="7" refX="9" refY="3.5" orient="auto">
      <polygon points="0 0, 10 3.5, 0 7" fill="#c9c5b6"/>
    </marker>
    <marker id="arrowF" markerWidth="10" markerHeight="7" refX="9" refY="3.5" orient="auto">
      <polygon points="0 0, 10 3.5, 0 7" fill="#8b8899"/>
    </marker>
    <marker id="arrowG" markerWidth="10" markerHeight="7" refX="9" refY="3.5" orient="auto">
      <polygon points="0 0, 10 3.5, 0 7" fill="#e6a562"/>
    </marker>
    <marker id="arrowH" markerWidth="10" markerHeight="7" refX="9" refY="3.5" orient="auto">
      <polygon points="0 0, 10 3.5, 0 7" fill="#8b8899"/>
    </marker>
    <filter id="editorialGrain" x="0" y="0" width="100%" height="100%">
      <feTurbulence type="fractalNoise" baseFrequency="0.9" numOctaves="2" stitchTiles="stitch"/>
      <feColorMatrix values="0 0 0 0 1  0 0 0 0 1  0 0 0 0 1  0 0 0 0.08 0"/>
    </filter>
    <radialGradient id="editorialTopGlow" cx="50%" cy="0%" r="80%">
      <stop offset="0%" stop-color="#e6a562" stop-opacity="0.12"/>
      <stop offset="100%" stop-color="#e6a562" stop-opacity="0"/>
    </radialGradient>
    <style>
    text { font-family: 'Inter', 'Noto Sans', 'Helvetica Neue', 'DejaVu Sans', sans-serif; }
    .title { font-size: 46px; font-weight: 700; fill: #f5efe0; font-family: 'Playfair Display', 'Noto Serif Display', 'DejaVu Serif', Georgia, serif; }
    .subtitle { font-size: 12px; font-weight: 500; fill: #e6a562; letter-spacing: 0.3em; text-transform: uppercase; }
    .section { font-size: 13px; font-weight: 700; fill: #f5efe0; letter-spacing: 1.4px; }
    .section-sub { font-size: 12px; font-weight: 500; fill: #b5b3a8; }
    .node-title { font-size: 18px; font-weight: 700; fill: #f5efe0; }
    .node-sub { font-size: 12px; font-weight: 500; fill: #d4cfbf; }
    .node-type { font-size: 10px; font-weight: 700; fill: #b5b3a8; letter-spacing: 0.08em; }
    .arrow-label { font-size: 12px; font-weight: 600; fill: #c9c5b6; }
    .legend { font-size: 12px; font-weight: 500; fill: #d4cfbf; }
    .footnote { font-size: 12px; font-weight: 500; fill: #b5b3a8; }
    </style>
  </defs>
  <rect width="1280.0" height="680.0" fill="#15151e"/>
  <rect width="1280.0" height="374.00000000000006" fill="url(#editorialTopGlow)"/>
  <rect width="1280.0" height="680.0" filter="url(#editorialGrain)" opacity="0.6"/>
  <text x="640.0" y="56" text-anchor="middle" class="title">Relay Module — Signal · Body · Load</text>
  <text x="640.0" y="82" text-anchor="middle" class="subtitle">Opto-isolated 8-channel module · remove VCC/JD-VCC jumper to keep coil supply separate from logic</text>
  <rect x="40.0" y="140.0" width="360.0" height="460.0" rx="16.0" fill="none" stroke="rgba(245,239,224,0.12)" stroke-width="1.4"/>
  <text x="58.0" y="164.0" class="section">IN // SIGNAL · LV ZONE</text>
  <rect x="440.0" y="140.0" width="360.0" height="460.0" rx="16.0" fill="none" stroke="rgba(245,239,224,0.12)" stroke-width="1.4"/>
  <text x="458.0" y="164.0" class="section">BODY // RELAY BOARD</text>
  <rect x="840.0" y="140.0" width="360.0" height="460.0" rx="16.0" fill="none" stroke="rgba(245,239,224,0.12)" stroke-width="1.4"/>
  <text x="858.0" y="164.0" class="section">OUT // LOAD · MAINS ZONE</text>
  <path d="M 360.0,230.0 L 380.4,230.0 L 459.6,235.0 L 480.0,235.0" fill="none" stroke="#c9c5b6" stroke-width="1.6" marker-end="url(#arrowA)"/>
  <path d="M 360.0,376.0 L 380.4,376.0 L 459.6,235.0 L 480.0,235.0" fill="none" stroke="#c9c5b6" stroke-width="1.6" marker-end="url(#arrowA)"/>
  <path d="M 620.0,270.0 L 620.0,300.0" fill="none" stroke="#c9c5b6" stroke-width="1.6" marker-end="url(#arrowA)"/>
  <path d="M 620.0,370.0 L 620.0,400.0" fill="none" stroke="#c9c5b6" stroke-width="1.6" marker-end="url(#arrowA)"/>
  <path d="M 760.0,335.0 L 880.0,335.0" fill="none" stroke="#c9c5b6" stroke-width="1.6" marker-end="url(#arrowA)"/>
  <path d="M 220.0,500.0 L 220.0,520.0" fill="none" stroke="#e6a562" stroke-width="1.6" marker-end="url(#arrowG)" stroke-dasharray="6,4"/>
  <path d="M 1020.0,270.0 L 1020.0,300.0" fill="none" stroke="#6fd1b4" stroke-width="1.6" marker-end="url(#arrowB)"/>
  <path d="M 1020.0,270.0 L 1020.0,400.0" fill="none" stroke="#8b8899" stroke-width="1.6" marker-end="url(#arrowF)" stroke-dasharray="6,4"/>
  <rect x="80.0" y="200.0" width="280.0" height="60.0" rx="8.0" fill="#24222f" stroke="rgba(245,239,224,0.18)" stroke-width="1.8"/>
  <text x="220.0" y="230.0" text-anchor="middle" class="node-title">VCC</text>
  <text x="220.0" y="252.0" text-anchor="middle" class="node-sub">3.3 V opto supply</text>
  <rect x="80.0" y="280.0" width="280.0" height="48.0" rx="8.0" fill="#24222f" stroke="rgba(245,239,224,0.18)" stroke-width="1.8"/>
  <text x="220.0" y="304.0" text-anchor="middle" class="node-title">GND</text>
  <rect x="80.0" y="346.0" width="280.0" height="60.0" rx="8.0" fill="#24222f" stroke="rgba(245,239,224,0.18)" stroke-width="1.8"/>
  <text x="220.0" y="376.0" text-anchor="middle" class="node-title">IN1 – IN8</text>
  <text x="220.0" y="398.0" text-anchor="middle" class="node-sub">active LOW triggers</text>
  <rect x="80.0" y="430.0" width="280.0" height="70.0" rx="8.0" fill="#24222f" stroke="#e6a562" stroke-width="2.0"/>
  <rect x="86.0" y="436.0" width="268.0" height="58.0" rx="5.0" fill="none" stroke="#e6a562" stroke-width="1.2" opacity="0.65"/>
  <text x="220.0" y="448.0" text-anchor="middle" class="node-type">CRITICAL</text>
  <text x="220.0" y="471.0" text-anchor="middle" class="node-title">VCC / JD-VCC jumper</text>
  <text x="220.0" y="493.0" text-anchor="middle" class="node-sub">REMOVE THIS</text>
  <rect x="80.0" y="520.0" width="280.0" height="60.0" rx="8.0" fill="#24222f" stroke="rgba(245,239,224,0.18)" stroke-width="1.8"/>
  <text x="220.0" y="550.0" text-anchor="middle" class="node-title">JD-VCC</text>
  <text x="220.0" y="572.0" text-anchor="middle" class="node-sub">5 V coil supply (separate)</text>
  <rect x="480.0" y="200.0" width="280.0" height="70.0" rx="8.0" fill="#24222f" stroke="rgba(245,239,224,0.18)" stroke-width="1.8"/>
  <text x="620.0" y="235.0" text-anchor="middle" class="node-title">8× PC817</text>
  <text x="620.0" y="257.0" text-anchor="middle" class="node-sub">optocouplers</text>
  <rect x="480.0" y="300.0" width="280.0" height="70.0" rx="8.0" fill="#24222f" stroke="rgba(245,239,224,0.18)" stroke-width="1.8"/>
  <text x="620.0" y="335.0" text-anchor="middle" class="node-title">8× relay bodies</text>
  <text x="620.0" y="357.0" text-anchor="middle" class="node-sub">mechanical contacts</text>
  <rect x="480.0" y="400.0" width="280.0" height="60.0" rx="8.0" fill="#24222f" stroke="rgba(245,239,224,0.18)" stroke-width="1.8"/>
  <text x="620.0" y="430.0" text-anchor="middle" class="node-title">8× LEDs</text>
  <text x="620.0" y="452.0" text-anchor="middle" class="node-sub">status indicators</text>
  <rect x="880.0" y="200.0" width="280.0" height="70.0" rx="8.0" fill="#24222f" stroke="rgba(245,239,224,0.18)" stroke-width="1.8"/>
  <text x="1020.0" y="235.0" text-anchor="middle" class="node-title">COM</text>
  <text x="1020.0" y="257.0" text-anchor="middle" class="node-sub">mains Hot in</text>
  <rect x="880.0" y="300.0" width="280.0" height="70.0" rx="8.0" fill="#24222f" stroke="#6fd1b4" stroke-width="2.0"/>
  <rect x="886.0" y="306.0" width="268.0" height="58.0" rx="5.0" fill="none" stroke="#6fd1b4" stroke-width="1.2" opacity="0.65"/>
  <text x="1020.0" y="318.0" text-anchor="middle" class="node-type">USE THIS</text>
  <text x="1020.0" y="341.0" text-anchor="middle" class="node-title">NO</text>
  <text x="1020.0" y="363.0" text-anchor="middle" class="node-sub">normally open · loads here</text>
  <rect x="880.0" y="400.0" width="280.0" height="60.0" rx="8.0" fill="#24222f" stroke="rgba(245,239,224,0.18)" stroke-width="1.8"/>
  <text x="1020.0" y="430.0" text-anchor="middle" class="node-title">NC</text>
  <text x="1020.0" y="452.0" text-anchor="middle" class="node-sub">not used</text>
  <rect x="385.0" y="275.5" width="70" height="20" rx="6" fill="#15151e" opacity="1"/>
  <text x="420.0" y="289.5" text-anchor="middle" class="arrow-label">pull LOW</text>
  <rect x="139.5" y="496.0" width="161" height="20" rx="6" fill="#15151e" opacity="1"/>
  <text x="220.0" y="510.0" text-anchor="middle" class="arrow-label">isolates when removed</text>
</svg>