<svg xmlns="http://www.w3.org/2000/svg" viewBox="0 0 1280 720" width="1280" height="720">
  <defs>
    <marker id="arrowA" markerWidth="10" markerHeight="7" refX="9" refY="3.5" orient="auto">
      <polygon points="0 0, 10 3.5, 0 7" fill="#c9c5b6"/>
    </marker>
    <marker id="arrowB" markerWidth="10" markerHeight="7" refX="9" refY="3.5" orient="auto">
      <polygon points="0 0, 10 3.5, 0 7" fill="#6fd1b4"/>
    </marker>
    <marker id="arrowC" markerWidth="10" markerHeight="7" refX="9" refY="3.5" orient="auto">
      <polygon points="0 0, 10 3.5, 0 7" fill="#c9c5b6"/>
    </marker>
    <marker id="arrowE" markerWidth="10" markerHeight="7" refX="9" refY="3.5" orient="auto">
      <polygon points="0 0, 10 3.5, 0 7" fill="#c9c5b6"/>
    </marker>
    <marker id="arrowF" markerWidth="10" markerHeight="7" refX="9" refY="3.5" orient="auto">
      <polygon points="0 0, 10 3.5, 0 7" fill="#8b8899"/>
    </marker>
    <marker id="arrowG" markerWidth="10" markerHeight="7" refX="9" refY="3.5" orient="auto">
      <polygon points="0 0, 10 3.5, 0 7" fill="#e6a562"/>
    </marker>
    <marker id="arrowH" markerWidth="10" markerHeight="7" refX="9" refY="3.5" orient="auto">
      <polygon points="0 0, 10 3.5, 0 7" fill="#8b8899"/>
    </marker>
    <filter id="editorialGrain" x="0" y="0" width="100%" height="100%">
      <feTurbulence type="fractalNoise" baseFrequency="0.9" numOctaves="2" stitchTiles="stitch"/>
      <feColorMatrix values="0 0 0 0 1  0 0 0 0 1  0 0 0 0 1  0 0 0 0.08 0"/>
    </filter>
    <radialGradient id="editorialTopGlow" cx="50%" cy="0%" r="80%">
      <stop offset="0%" stop-color="#e6a562" stop-opacity="0.12"/>
      <stop offset="100%" stop-color="#e6a562" stop-opacity="0"/>
    </radialGradient>
    <style>
    text { font-family: 'Inter', 'Noto Sans', 'Helvetica Neue', 'DejaVu Sans', sans-serif; }
    .title { font-size: 46px; font-weight: 700; fill: #f5efe0; font-family: 'Playfair Display', 'Noto Serif Display', 'DejaVu Serif', Georgia, serif; }
    .subtitle { font-size: 12px; font-weight: 500; fill: #e6a562; letter-spacing: 0.3em; text-transform: uppercase; }
    .section { font-size: 13px; font-weight: 700; fill: #f5efe0; letter-spacing: 1.4px; }
    .section-sub { font-size: 12px; font-weight: 500; fill: #b5b3a8; }
    .node-title { font-size: 18px; font-weight: 700; fill: #f5efe0; }
    .node-sub { font-size: 12px; font-weight: 500; fill: #d4cfbf; }
    .node-type { font-size: 10px; font-weight: 700; fill: #b5b3a8; letter-spacing: 0.08em; }
    .arrow-label { font-size: 12px; font-weight: 600; fill: #c9c5b6; }
    .legend { font-size: 12px; font-weight: 500; fill: #d4cfbf; }
    .footnote { font-size: 12px; font-weight: 500; fill: #b5b3a8; }
    </style>
  </defs>
  <rect width="1280.0" height="720.0" fill="#15151e"/>
  <rect width="1280.0" height="396.00000000000006" fill="url(#editorialTopGlow)"/>
  <rect width="1280.0" height="720.0" filter="url(#editorialGrain)" opacity="0.6"/>
  <text x="640.0" y="56" text-anchor="middle" class="title">Master Switch Routing</text>
  <text x="640.0" y="82" text-anchor="middle" class="subtitle">DPDT master selects AUTO (3.3 V — group switches inactive) vs MANUAL (GND — group switches drive relays directly)</text>
  <path d="M 260.0,355.0 L 280.4,355.0 L 299.6,175.0 L 320.0,175.0" fill="none" stroke="#c9c5b6" stroke-width="1.6" marker-end="url(#arrowA)"/>
  <path d="M 260.0,355.0 L 280.4,355.0 L 299.6,475.0 L 320.0,475.0" fill="none" stroke="#6fd1b4" stroke-width="1.6" marker-end="url(#arrowB)"/>
  <path d="M 560.0,475.0 L 580.4,475.0 L 599.6,210.0 L 620.0,210.0" fill="none" stroke="#6fd1b4" stroke-width="1.6" marker-end="url(#arrowB)"/>
  <path d="M 560.0,475.0 L 580.4,475.0 L 599.6,300.0 L 620.0,300.0" fill="none" stroke="#6fd1b4" stroke-width="1.6" marker-end="url(#arrowB)"/>
  <path d="M 560.0,475.0 L 580.4,475.0 L 599.6,390.0 L 620.0,390.0" fill="none" stroke="#6fd1b4" stroke-width="1.6" marker-end="url(#arrowB)"/>
  <path d="M 560.0,475.0 L 580.4,475.0 L 599.6,480.0 L 620.0,480.0" fill="none" stroke="#6fd1b4" stroke-width="1.6" marker-end="url(#arrowB)"/>
  <path d="M 780.0,210.0 L 800.4,210.0 L 819.6,126.0 L 840.0,126.0" fill="none" stroke="#c9c5b6" stroke-width="1.6" marker-end="url(#arrowA)"/>
  <path d="M 780.0,210.0 L 800.4,210.0 L 819.6,186.0 L 840.0,186.0" fill="none" stroke="#c9c5b6" stroke-width="1.6" marker-end="url(#arrowA)"/>
  <path d="M 780.0,300.0 L 800.4,300.0 L 819.6,276.0 L 840.0,276.0" fill="none" stroke="#c9c5b6" stroke-width="1.6" marker-end="url(#arrowA)"/>
  <path d="M 780.0,300.0 L 800.4,300.0 L 819.6,336.0 L 840.0,336.0" fill="none" stroke="#c9c5b6" stroke-width="1.6" marker-end="url(#arrowA)"/>
  <path d="M 780.0,390.0 L 800.4,390.0 L 819.6,416.0 L 840.0,416.0" fill="none" stroke="#c9c5b6" stroke-width="1.6" marker-end="url(#arrowA)"/>
  <path d="M 780.0,480.0 L 800.4,480.0 L 819.6,506.0 L 840.0,506.0" fill="none" stroke="#c9c5b6" stroke-width="1.6" marker-end="url(#arrowA)"/>
  <rect x="40.0" y="300.0" width="220.0" height="110.0" rx="8.0" fill="#24222f" stroke="#e6a562" stroke-width="2.0"/>
  <rect x="46.0" y="306.0" width="208.0" height="98.0" rx="5.0" fill="none" stroke="#e6a562" stroke-width="1.2" opacity="0.65"/>
  <text x="150.0" y="318.0" text-anchor="middle" class="node-type">SOURCE</text>
  <text x="150.0" y="361.0" text-anchor="middle" class="node-title">DPDT MASTER</text>
  <text x="150.0" y="383.0" text-anchor="middle" class="node-sub">AUTO / MAN</text>
  <rect x="320.0" y="140.0" width="240.0" height="70.0" rx="8.0" fill="#24222f" stroke="rgba(245,239,224,0.18)" stroke-width="1.8"/>
  <text x="440.0" y="175.0" text-anchor="middle" class="node-title">Group switches</text>
  <text x="440.0" y="197.0" text-anchor="middle" class="node-sub">inactive in AUTO</text>
  <rect x="320.0" y="440.0" width="240.0" height="70.0" rx="8.0" fill="#24222f" stroke="#6fd1b4" stroke-width="1.8"/>
  <text x="440.0" y="475.0" text-anchor="middle" class="node-title">Common wire</text>
  <text x="440.0" y="497.0" text-anchor="middle" class="node-sub">MANUAL only</text>
  <rect x="620.0" y="180.0" width="160.0" height="60.0" rx="8.0" fill="#24222f" stroke="rgba(245,239,224,0.18)" stroke-width="1.8"/>
  <text x="700.0" y="210.0" text-anchor="middle" class="node-title">HUMIDITY</text>
  <rect x="620.0" y="270.0" width="160.0" height="60.0" rx="8.0" fill="#24222f" stroke="rgba(245,239,224,0.18)" stroke-width="1.8"/>
  <text x="700.0" y="300.0" text-anchor="middle" class="node-title">FAE</text>
  <rect x="620.0" y="360.0" width="160.0" height="60.0" rx="8.0" fill="#24222f" stroke="rgba(245,239,224,0.18)" stroke-width="1.8"/>
  <text x="700.0" y="390.0" text-anchor="middle" class="node-title">UVC</text>
  <rect x="620.0" y="450.0" width="160.0" height="60.0" rx="8.0" fill="#24222f" stroke="rgba(245,239,224,0.18)" stroke-width="1.8"/>
  <text x="700.0" y="480.0" text-anchor="middle" class="node-title">LIGHTS</text>
  <rect x="840.0" y="100.0" width="180.0" height="52.0" rx="8.0" fill="#24222f" stroke="rgba(245,239,224,0.18)" stroke-width="1.8"/>
  <text x="930.0" y="126.0" text-anchor="middle" class="node-title">Fogger</text>
  <text x="930.0" y="148.0" text-anchor="middle" class="node-sub">IN1</text>
  <rect x="840.0" y="160.0" width="180.0" height="52.0" rx="8.0" fill="#24222f" stroke="rgba(245,239,224,0.18)" stroke-width="1.8"/>
  <text x="930.0" y="186.0" text-anchor="middle" class="node-title">Tub fan</text>
  <text x="930.0" y="208.0" text-anchor="middle" class="node-sub">IN2</text>
  <rect x="840.0" y="250.0" width="180.0" height="52.0" rx="8.0" fill="#24222f" stroke="rgba(245,239,224,0.18)" stroke-width="1.8"/>
  <text x="930.0" y="276.0" text-anchor="middle" class="node-title">Exhaust</text>
  <text x="930.0" y="298.0" text-anchor="middle" class="node-sub">IN3</text>
  <rect x="840.0" y="310.0" width="180.0" height="52.0" rx="8.0" fill="#24222f" stroke="rgba(245,239,224,0.18)" stroke-width="1.8"/>
  <text x="930.0" y="336.0" text-anchor="middle" class="node-title">Intake</text>
  <text x="930.0" y="358.0" text-anchor="middle" class="node-sub">IN4</text>
  <rect x="840.0" y="390.0" width="180.0" height="52.0" rx="8.0" fill="#24222f" stroke="rgba(245,239,224,0.18)" stroke-width="1.8"/>
  <text x="930.0" y="416.0" text-anchor="middle" class="node-title">UVC lights</text>
  <text x="930.0" y="438.0" text-anchor="middle" class="node-sub">IN5</text>
  <rect x="840.0" y="480.0" width="180.0" height="52.0" rx="8.0" fill="#24222f" stroke="rgba(245,239,224,0.18)" stroke-width="1.8"/>
  <text x="930.0" y="506.0" text-anchor="middle" class="node-title">Grow lights</text>
  <text x="930.0" y="528.0" text-anchor="middle" class="node-sub">IN6</text>
  <rect x="241.0" y="235.0" width="98" height="20" rx="6" fill="#15151e" opacity="1"/>
  <text x="290.0" y="249.0" text-anchor="middle" class="arrow-label">AUTO · 3.3 V</text>
  <rect x="241.0" y="401.0" width="98" height="20" rx="6" fill="#15151e" opacity="1"/>
  <text x="290.0" y="415.0" text-anchor="middle" class="arrow-label">MANUAL · GND</text>
  <line x1="40.0" y1="620.0" x2="70.0" y2="620.0" stroke="#c9c5b6" stroke-width="1.6" marker-end="url(#arrowA)"/>
  <text x="80.0" y="624.0" class="legend">AUTO path (inactive — ESP32 controls)</text>
  <line x1="40.0" y1="642.0" x2="70.0" y2="642.0" stroke="#6fd1b4" stroke-width="1.6" marker-end="url(#arrowB)"/>
  <text x="80.0" y="646.0" class="legend">MANUAL path (group switch drives relay directly)</text>
</svg>