<svg xmlns="http://www.w3.org/2000/svg" viewBox="0 0 1280 520" width="1280" height="520">
  <defs>
    <marker id="arrowA" markerWidth="10" markerHeight="7" refX="9" refY="3.5" orient="auto">
      <polygon points="0 0, 10 3.5, 0 7" fill="#c9c5b6"/>
    </marker>
    <marker id="arrowB" markerWidth="10" markerHeight="7" refX="9" refY="3.5" orient="auto">
      <polygon points="0 0, 10 3.5, 0 7" fill="#6fd1b4"/>
    </marker>
    <marker id="arrowC" markerWidth="10" markerHeight="7" refX="9" refY="3.5" orient="auto">
      <polygon points="0 0, 10 3.5, 0 7" fill="#c9c5b6"/>
    </marker>
    <marker id="arrowE" markerWidth="10" markerHeight="7" refX="9" refY="3.5" orient="auto">
      <polygon points="0 0, 10 3.5, 0 7" fill="#c9c5b6"/>
    </marker>
    <marker id="arrowF" markerWidth="10" markerHeight="7" refX="9" refY="3.5" orient="auto">
      <polygon points="0 0, 10 3.5, 0 7" fill="#8b8899"/>
    </marker>
    <marker id="arrowG" markerWidth="10" markerHeight="7" refX="9" refY="3.5" orient="auto">
      <polygon points="0 0, 10 3.5, 0 7" fill="#e6a562"/>
    </marker>
    <marker id="arrowH" markerWidth="10" markerHeight="7" refX="9" refY="3.5" orient="auto">
      <polygon points="0 0, 10 3.5, 0 7" fill="#8b8899"/>
    </marker>
    <filter id="editorialGrain" x="0" y="0" width="100%" height="100%">
      <feTurbulence type="fractalNoise" baseFrequency="0.9" numOctaves="2" stitchTiles="stitch"/>
      <feColorMatrix values="0 0 0 0 1  0 0 0 0 1  0 0 0 0 1  0 0 0 0.08 0"/>
    </filter>
    <radialGradient id="editorialTopGlow" cx="50%" cy="0%" r="80%">
      <stop offset="0%" stop-color="#e6a562" stop-opacity="0.12"/>
      <stop offset="100%" stop-color="#e6a562" stop-opacity="0"/>
    </radialGradient>
    <style>
    text { font-family: 'Inter', 'Noto Sans', 'Helvetica Neue', 'DejaVu Sans', sans-serif; }
    .title { font-size: 46px; font-weight: 700; fill: #f5efe0; font-family: 'Playfair Display', 'Noto Serif Display', 'DejaVu Serif', Georgia, serif; }
    .subtitle { font-size: 12px; font-weight: 500; fill: #e6a562; letter-spacing: 0.3em; text-transform: uppercase; }
    .section { font-size: 13px; font-weight: 700; fill: #f5efe0; letter-spacing: 1.4px; }
    .section-sub { font-size: 12px; font-weight: 500; fill: #b5b3a8; }
    .node-title { font-size: 18px; font-weight: 700; fill: #f5efe0; }
    .node-sub { font-size: 12px; font-weight: 500; fill: #d4cfbf; }
    .node-type { font-size: 10px; font-weight: 700; fill: #b5b3a8; letter-spacing: 0.08em; }
    .arrow-label { font-size: 12px; font-weight: 600; fill: #c9c5b6; }
    .legend { font-size: 12px; font-weight: 500; fill: #d4cfbf; }
    .footnote { font-size: 12px; font-weight: 500; fill: #b5b3a8; }
    </style>
  </defs>
  <rect width="1280.0" height="520.0" fill="#15151e"/>
  <rect width="1280.0" height="286.0" fill="url(#editorialTopGlow)"/>
  <rect width="1280.0" height="520.0" filter="url(#editorialGrain)" opacity="0.6"/>
  <text x="640.0" y="56" text-anchor="middle" class="title">DPDT Switch Poles</text>
  <text x="640.0" y="82" text-anchor="middle" class="subtitle">Pole A carries the auto/manual source · Pole B is optional and only feeds a status LED</text>
  <rect x="40.0" y="140.0" width="580.0" height="330.0" rx="16.0" fill="none" stroke="rgba(245,239,224,0.12)" stroke-width="1.4"/>
  <text x="58.0" y="164.0" class="section">A // POLE A · USED</text>
  <rect x="660.0" y="140.0" width="580.0" height="330.0" rx="16.0" fill="none" stroke="rgba(245,239,224,0.12)" stroke-width="1.4"/>
  <text x="678.0" y="164.0" class="section">B // POLE B · OPTIONAL</text>
  <path d="M 320.0,255.0 L 339.6,255.0 L 339.6,230.0 L 360.0,230.0" fill="none" stroke="#c9c5b6" stroke-width="1.6" marker-end="url(#arrowA)"/>
  <path d="M 320.0,255.0 L 336.0,255.0 L 336.0,320.0 L 360.0,320.0" fill="none" stroke="#6fd1b4" stroke-width="1.6" marker-end="url(#arrowB)"/>
  <path d="M 940.0,255.0 L 959.6,255.0 L 959.6,230.0 L 980.0,230.0" fill="none" stroke="#8b8899" stroke-width="1.6" marker-end="url(#arrowF)" stroke-dasharray="6,4"/>
  <path d="M 940.0,255.0 L 956.0,255.0 L 956.0,320.0 L 980.0,320.0" fill="none" stroke="#6fd1b4" stroke-width="1.6" marker-end="url(#arrowB)"/>
  <rect x="80.0" y="210.0" width="240.0" height="90.0" rx="8.0" fill="#24222f" stroke="#e6a562" stroke-width="2.0"/>
  <rect x="86.0" y="216.0" width="228.0" height="78.0" rx="5.0" fill="none" stroke="#e6a562" stroke-width="1.2" opacity="0.65"/>
  <text x="200.0" y="228.0" text-anchor="middle" class="node-type">SOURCE</text>
  <text x="200.0" y="261.0" text-anchor="middle" class="node-title">P1-COM</text>
  <text x="200.0" y="283.0" text-anchor="middle" class="node-sub">to group switch common</text>
  <rect x="360.0" y="200.0" width="220.0" height="60.0" rx="8.0" fill="#24222f" stroke="rgba(245,239,224,0.18)" stroke-width="1.8"/>
  <text x="470.0" y="230.0" text-anchor="middle" class="node-title">P1-T1</text>
  <text x="470.0" y="252.0" text-anchor="middle" class="node-sub">AUTO · 3.3 V</text>
  <rect x="360.0" y="290.0" width="220.0" height="60.0" rx="8.0" fill="#24222f" stroke="rgba(245,239,224,0.18)" stroke-width="1.8"/>
  <text x="470.0" y="320.0" text-anchor="middle" class="node-title">P1-T2</text>
  <text x="470.0" y="342.0" text-anchor="middle" class="node-sub">MANUAL · GND</text>
  <rect x="700.0" y="210.0" width="240.0" height="90.0" rx="8.0" fill="#24222f" stroke="rgba(245,239,224,0.18)" stroke-width="1.8"/>
  <text x="820.0" y="255.0" text-anchor="middle" class="node-title">P2-COM</text>
  <text x="820.0" y="277.0" text-anchor="middle" class="node-sub">to 3.3 V</text>
  <rect x="980.0" y="200.0" width="220.0" height="60.0" rx="8.0" fill="#24222f" stroke="rgba(245,239,224,0.18)" stroke-width="1.8"/>
  <text x="1090.0" y="230.0" text-anchor="middle" class="node-title">P2-T1</text>
  <text x="1090.0" y="252.0" text-anchor="middle" class="node-sub">not connected</text>
  <rect x="980.0" y="290.0" width="220.0" height="60.0" rx="8.0" fill="#24222f" stroke="#6fd1b4" stroke-width="1.8"/>
  <text x="1090.0" y="320.0" text-anchor="middle" class="node-title">P2-T2</text>
  <text x="1090.0" y="342.0" text-anchor="middle" class="node-sub">MANUAL · LED anode</text>
</svg>