<svg xmlns="http://www.w3.org/2000/svg" viewBox="0 0 1280 460" width="1280" height="460">
  <defs>
    <marker id="arrowA" markerWidth="10" markerHeight="7" refX="9" refY="3.5" orient="auto">
      <polygon points="0 0, 10 3.5, 0 7" fill="#c9c5b6"/>
    </marker>
    <marker id="arrowB" markerWidth="10" markerHeight="7" refX="9" refY="3.5" orient="auto">
      <polygon points="0 0, 10 3.5, 0 7" fill="#6fd1b4"/>
    </marker>
    <marker id="arrowC" markerWidth="10" markerHeight="7" refX="9" refY="3.5" orient="auto">
      <polygon points="0 0, 10 3.5, 0 7" fill="#c9c5b6"/>
    </marker>
    <marker id="arrowE" markerWidth="10" markerHeight="7" refX="9" refY="3.5" orient="auto">
      <polygon points="0 0, 10 3.5, 0 7" fill="#c9c5b6"/>
    </marker>
    <marker id="arrowF" markerWidth="10" markerHeight="7" refX="9" refY="3.5" orient="auto">
      <polygon points="0 0, 10 3.5, 0 7" fill="#8b8899"/>
    </marker>
    <marker id="arrowG" markerWidth="10" markerHeight="7" refX="9" refY="3.5" orient="auto">
      <polygon points="0 0, 10 3.5, 0 7" fill="#e6a562"/>
    </marker>
    <marker id="arrowH" markerWidth="10" markerHeight="7" refX="9" refY="3.5" orient="auto">
      <polygon points="0 0, 10 3.5, 0 7" fill="#8b8899"/>
    </marker>
    <filter id="editorialGrain" x="0" y="0" width="100%" height="100%">
      <feTurbulence type="fractalNoise" baseFrequency="0.9" numOctaves="2" stitchTiles="stitch"/>
      <feColorMatrix values="0 0 0 0 1  0 0 0 0 1  0 0 0 0 1  0 0 0 0.08 0"/>
    </filter>
    <radialGradient id="editorialTopGlow" cx="50%" cy="0%" r="80%">
      <stop offset="0%" stop-color="#e6a562" stop-opacity="0.12"/>
      <stop offset="100%" stop-color="#e6a562" stop-opacity="0"/>
    </radialGradient>
    <style>
    text { font-family: 'Inter', 'Noto Sans', 'Helvetica Neue', 'DejaVu Sans', sans-serif; }
    .title { font-size: 46px; font-weight: 700; fill: #f5efe0; font-family: 'Playfair Display', 'Noto Serif Display', 'DejaVu Serif', Georgia, serif; }
    .subtitle { font-size: 12px; font-weight: 500; fill: #e6a562; letter-spacing: 0.3em; text-transform: uppercase; }
    .section { font-size: 13px; font-weight: 700; fill: #f5efe0; letter-spacing: 1.4px; }
    .section-sub { font-size: 12px; font-weight: 500; fill: #b5b3a8; }
    .node-title { font-size: 18px; font-weight: 700; fill: #f5efe0; }
    .node-sub { font-size: 12px; font-weight: 500; fill: #d4cfbf; }
    .node-type { font-size: 10px; font-weight: 700; fill: #b5b3a8; letter-spacing: 0.08em; }
    .arrow-label { font-size: 12px; font-weight: 600; fill: #c9c5b6; }
    .legend { font-size: 12px; font-weight: 500; fill: #d4cfbf; }
    .footnote { font-size: 12px; font-weight: 500; fill: #b5b3a8; }
    </style>
  </defs>
  <rect width="1280.0" height="460.0" fill="#15151e"/>
  <rect width="1280.0" height="253.00000000000003" fill="url(#editorialTopGlow)"/>
  <rect width="1280.0" height="460.0" filter="url(#editorialGrain)" opacity="0.6"/>
  <text x="640.0" y="56" text-anchor="middle" class="title">Relay Input Signal Convergence</text>
  <text x="640.0" y="82" text-anchor="middle" class="subtitle">ESP GPIO, manual override switch, and pull-up all drive a single IN — pull LOW to fire</text>
  <path d="M 280.0,140.0 L 300.4,140.0 L 779.6,260.0 L 800.0,260.0" fill="none" stroke="#c9c5b6" stroke-width="1.6" marker-end="url(#arrowA)"/>
  <path d="M 280.0,260.0 L 800.0,260.0" fill="none" stroke="#6fd1b4" stroke-width="1.6" marker-end="url(#arrowB)"/>
  <path d="M 280.0,380.0 L 300.4,380.0 L 779.6,260.0 L 800.0,260.0" fill="none" stroke="#8b8899" stroke-width="1.6" marker-end="url(#arrowF)" stroke-dasharray="6,4"/>
  <rect x="40.0" y="100.0" width="240.0" height="80.0" rx="8.0" fill="#24222f" stroke="#e6a562" stroke-width="2.0"/>
  <rect x="46.0" y="106.0" width="228.0" height="68.0" rx="5.0" fill="none" stroke="#e6a562" stroke-width="1.2" opacity="0.65"/>
  <text x="160.0" y="118.0" text-anchor="middle" class="node-type">AUTO</text>
  <text x="160.0" y="146.0" text-anchor="middle" class="node-title">ESP32 GPIO</text>
  <rect x="40.0" y="220.0" width="240.0" height="80.0" rx="8.0" fill="#24222f" stroke="#6fd1b4" stroke-width="1.8"/>
  <text x="160.0" y="260.0" text-anchor="middle" class="node-title">DPDT common</text>
  <text x="160.0" y="282.0" text-anchor="middle" class="node-sub">SPST group switch</text>
  <rect x="40.0" y="340.0" width="240.0" height="80.0" rx="8.0" fill="#24222f" stroke="rgba(245,239,224,0.18)" stroke-width="1.8"/>
  <text x="160.0" y="380.0" text-anchor="middle" class="node-title">10 kΩ pull-up</text>
  <text x="160.0" y="402.0" text-anchor="middle" class="node-sub">to 3.3 V</text>
  <rect x="800.0" y="210.0" width="300.0" height="100.0" rx="8.0" fill="#24222f" stroke="rgba(245,239,224,0.18)" stroke-width="2.0"/>
  <rect x="806.0" y="216.0" width="288.0" height="88.0" rx="5.0" fill="none" stroke="rgba(245,239,224,0.18)" stroke-width="1.2" opacity="0.65"/>
  <text x="950.0" y="228.0" text-anchor="middle" class="node-type">TARGET</text>
  <text x="950.0" y="266.0" text-anchor="middle" class="node-title">Relay INx</text>
  <text x="950.0" y="288.0" text-anchor="middle" class="node-sub">default HIGH · pull LOW to fire</text>
  <rect x="498.0" y="170.0" width="84" height="20" rx="6" fill="#15151e" opacity="1"/>
  <text x="540.0" y="184.0" text-anchor="middle" class="arrow-label">active LOW</text>
  <rect x="494.5" y="230.0" width="91" height="20" rx="6" fill="#15151e" opacity="1"/>
  <text x="540.0" y="244.0" text-anchor="middle" class="arrow-label">MANUAL only</text>
  <rect x="491.0" y="290.0" width="98" height="20" rx="6" fill="#15151e" opacity="1"/>
  <text x="540.0" y="304.0" text-anchor="middle" class="arrow-label">HIGH default</text>
  <line x1="40.0" y1="440.0" x2="70.0" y2="440.0" stroke="#c9c5b6" stroke-width="1.6" marker-end="url(#arrowA)"/>
  <text x="80.0" y="444.0" class="legend">ESP32 automation (active LOW)</text>
  <line x1="40.0" y1="462.0" x2="70.0" y2="462.0" stroke="#6fd1b4" stroke-width="1.6" marker-end="url(#arrowB)"/>
  <text x="80.0" y="466.0" class="legend">Manual override via front panel</text>
  <line x1="40.0" y1="484.0" x2="70.0" y2="484.0" stroke="#8b8899" stroke-width="1.6" marker-end="url(#arrowF)"/>
  <text x="80.0" y="488.0" class="legend">Pull-up keeps line HIGH when both are tri-stated</text>
</svg>