<svg xmlns="http://www.w3.org/2000/svg" viewBox="0 0 1200 580" width="1200" height="580">
  <defs>
    <marker id="arrowA" markerWidth="10" markerHeight="7" refX="9" refY="3.5" orient="auto">
      <polygon points="0 0, 10 3.5, 0 7" fill="#c9c5b6"/>
    </marker>
    <marker id="arrowB" markerWidth="10" markerHeight="7" refX="9" refY="3.5" orient="auto">
      <polygon points="0 0, 10 3.5, 0 7" fill="#6fd1b4"/>
    </marker>
    <marker id="arrowC" markerWidth="10" markerHeight="7" refX="9" refY="3.5" orient="auto">
      <polygon points="0 0, 10 3.5, 0 7" fill="#c9c5b6"/>
    </marker>
    <marker id="arrowE" markerWidth="10" markerHeight="7" refX="9" refY="3.5" orient="auto">
      <polygon points="0 0, 10 3.5, 0 7" fill="#c9c5b6"/>
    </marker>
    <marker id="arrowF" markerWidth="10" markerHeight="7" refX="9" refY="3.5" orient="auto">
      <polygon points="0 0, 10 3.5, 0 7" fill="#8b8899"/>
    </marker>
    <marker id="arrowG" markerWidth="10" markerHeight="7" refX="9" refY="3.5" orient="auto">
      <polygon points="0 0, 10 3.5, 0 7" fill="#e6a562"/>
    </marker>
    <marker id="arrowH" markerWidth="10" markerHeight="7" refX="9" refY="3.5" orient="auto">
      <polygon points="0 0, 10 3.5, 0 7" fill="#8b8899"/>
    </marker>
    <filter id="editorialGrain" x="0" y="0" width="100%" height="100%">
      <feTurbulence type="fractalNoise" baseFrequency="0.9" numOctaves="2" stitchTiles="stitch"/>
      <feColorMatrix values="0 0 0 0 1  0 0 0 0 1  0 0 0 0 1  0 0 0 0.08 0"/>
    </filter>
    <radialGradient id="editorialTopGlow" cx="50%" cy="0%" r="80%">
      <stop offset="0%" stop-color="#e6a562" stop-opacity="0.12"/>
      <stop offset="100%" stop-color="#e6a562" stop-opacity="0"/>
    </radialGradient>
    <style>
    text { font-family: 'Inter', 'Noto Sans', 'Helvetica Neue', 'DejaVu Sans', sans-serif; }
    .title { font-size: 46px; font-weight: 700; fill: #f5efe0; font-family: 'Playfair Display', 'Noto Serif Display', 'DejaVu Serif', Georgia, serif; }
    .subtitle { font-size: 12px; font-weight: 500; fill: #e6a562; letter-spacing: 0.3em; text-transform: uppercase; }
    .section { font-size: 13px; font-weight: 700; fill: #f5efe0; letter-spacing: 1.4px; }
    .section-sub { font-size: 12px; font-weight: 500; fill: #b5b3a8; }
    .node-title { font-size: 18px; font-weight: 700; fill: #f5efe0; }
    .node-sub { font-size: 12px; font-weight: 500; fill: #d4cfbf; }
    .node-type { font-size: 10px; font-weight: 700; fill: #b5b3a8; letter-spacing: 0.08em; }
    .arrow-label { font-size: 12px; font-weight: 600; fill: #c9c5b6; }
    .legend { font-size: 12px; font-weight: 500; fill: #d4cfbf; }
    .footnote { font-size: 12px; font-weight: 500; fill: #b5b3a8; }
    </style>
  </defs>
  <rect width="1200.0" height="580.0" fill="#15151e"/>
  <rect width="1200.0" height="319.0" fill="url(#editorialTopGlow)"/>
  <rect width="1200.0" height="580.0" filter="url(#editorialGrain)" opacity="0.6"/>
  <text x="600.0" y="56" text-anchor="middle" class="title">Enclosure Zone Separation</text>
  <text x="600.0" y="82" text-anchor="middle" class="subtitle">Mains zone (120/230 V AC) vs Low-Voltage zone (max 5 V DC) — relay module spans both</text>
  <rect x="40.0" y="140.0" width="540.0" height="380.0" rx="16.0" fill="none" stroke="rgba(245,239,224,0.12)" stroke-width="1.4"/>
  <text x="58.0" y="164.0" class="section">AC // MAINS ZONE · 120/230 V AC</text>
  <rect x="620.0" y="140.0" width="540.0" height="380.0" rx="16.0" fill="none" stroke="rgba(245,239,224,0.12)" stroke-width="1.4"/>
  <text x="638.0" y="164.0" class="section">DC // LOW-VOLTAGE ZONE · MAX 5 V DC</text>
  <path d="M 280.0,226.0 L 639.6,226.0 L 639.6,228.0 L 660.0,228.0" fill="none" stroke="#e6a562" stroke-width="1.6" marker-end="url(#arrowG)" stroke-dasharray="6,4"/>
  <rect x="80.0" y="196.0" width="200.0" height="60.0" rx="8.0" fill="#24222f" stroke="#e6a562" stroke-width="2.0"/>
  <rect x="86.0" y="202.0" width="188.0" height="48.0" rx="5.0" fill="none" stroke="#e6a562" stroke-width="1.2" opacity="0.65"/>
  <text x="180.0" y="214.0" text-anchor="middle" class="node-type">30 mA trip</text>
  <text x="180.0" y="232.0" text-anchor="middle" class="node-title">GFCI / RCD</text>
  <rect x="320.0" y="196.0" width="220.0" height="60.0" rx="8.0" fill="#24222f" stroke="rgba(245,239,224,0.18)" stroke-width="1.8"/>
  <text x="430.0" y="226.0" text-anchor="middle" class="node-title">5 A Input Fuse</text>
  <rect x="80.0" y="280.0" width="200.0" height="60.0" rx="8.0" fill="#24222f" stroke="rgba(245,239,224,0.18)" stroke-width="1.8"/>
  <text x="180.0" y="310.0" text-anchor="middle" class="node-title">Blade Fuse Block</text>
  <text x="180.0" y="332.0" text-anchor="middle" class="node-sub">2–3 A / channel</text>
  <rect x="320.0" y="280.0" width="220.0" height="60.0" rx="8.0" fill="#24222f" stroke="rgba(245,239,224,0.18)" stroke-width="1.8"/>
  <text x="430.0" y="310.0" text-anchor="middle" class="node-title">5 V 3 A PSU</text>
  <text x="430.0" y="332.0" text-anchor="middle" class="node-sub">logic + relay coils</text>
  <rect x="80.0" y="360.0" width="200.0" height="60.0" rx="8.0" fill="#24222f" stroke="rgba(245,239,224,0.18)" stroke-width="1.8"/>
  <text x="180.0" y="390.0" text-anchor="middle" class="node-title">12 V 1 A PSU</text>
  <text x="180.0" y="412.0" text-anchor="middle" class="node-sub">water level</text>
  <rect x="320.0" y="360.0" width="220.0" height="60.0" rx="8.0" fill="#24222f" stroke="rgba(245,239,224,0.18)" stroke-width="1.8"/>
  <text x="430.0" y="390.0" text-anchor="middle" class="node-title">Load exit</text>
  <text x="430.0" y="412.0" text-anchor="middle" class="node-sub">bottom cable glands</text>
  <rect x="660.0" y="196.0" width="460.0" height="64.0" rx="8.0" fill="#24222f" stroke="#e6a562" stroke-width="2.0"/>
  <rect x="666.0" y="202.0" width="448.0" height="52.0" rx="5.0" fill="none" stroke="#e6a562" stroke-width="1.2" opacity="0.65"/>
  <text x="890.0" y="214.0" text-anchor="middle" class="node-type">BRIDGE</text>
  <text x="890.0" y="234.0" text-anchor="middle" class="node-title">Relay Module</text>
  <text x="890.0" y="256.0" text-anchor="middle" class="node-sub">spans both zones</text>
  <rect x="660.0" y="290.0" width="220.0" height="60.0" rx="8.0" fill="#24222f" stroke="rgba(245,239,224,0.18)" stroke-width="1.8"/>
  <text x="770.0" y="320.0" text-anchor="middle" class="node-title">ESP32-S3</text>
  <rect x="900.0" y="290.0" width="220.0" height="60.0" rx="8.0" fill="#24222f" stroke="rgba(245,239,224,0.18)" stroke-width="1.8"/>
  <text x="1010.0" y="320.0" text-anchor="middle" class="node-title">TCA · SCD30 · AS7341</text>
  <text x="1010.0" y="342.0" text-anchor="middle" class="node-sub">I2C sensors</text>
  <rect x="660.0" y="370.0" width="220.0" height="60.0" rx="8.0" fill="#24222f" stroke="rgba(245,239,224,0.18)" stroke-width="1.8"/>
  <text x="770.0" y="400.0" text-anchor="middle" class="node-title">LV terminal blocks</text>
  <rect x="900.0" y="370.0" width="220.0" height="60.0" rx="8.0" fill="#24222f" stroke="rgba(245,239,224,0.18)" stroke-width="1.8"/>
  <text x="1010.0" y="400.0" text-anchor="middle" class="node-title">Sensor entry</text>
  <text x="1010.0" y="422.0" text-anchor="middle" class="node-sub">PG9 cable glands</text>
  <rect x="407.3" y="212.0" width="105" height="20" rx="6" fill="#15151e" opacity="1"/>
  <text x="459.8" y="226.0" text-anchor="middle" class="arrow-label">load contacts</text>
  <line x1="40.0" y1="540.0" x2="70.0" y2="540.0" stroke="#e6a562" stroke-width="1.6" marker-end="url(#arrowG)"/>
  <text x="80.0" y="544.0" class="legend">Mains load contacts cross zone boundary only through relay</text>
</svg>