<svg xmlns="http://www.w3.org/2000/svg" viewBox="0 0 1280 560" width="1280" height="560">
  <defs>
    <marker id="arrowA" markerWidth="10" markerHeight="7" refX="9" refY="3.5" orient="auto">
      <polygon points="0 0, 10 3.5, 0 7" fill="#c9c5b6"/>
    </marker>
    <marker id="arrowB" markerWidth="10" markerHeight="7" refX="9" refY="3.5" orient="auto">
      <polygon points="0 0, 10 3.5, 0 7" fill="#6fd1b4"/>
    </marker>
    <marker id="arrowC" markerWidth="10" markerHeight="7" refX="9" refY="3.5" orient="auto">
      <polygon points="0 0, 10 3.5, 0 7" fill="#c9c5b6"/>
    </marker>
    <marker id="arrowE" markerWidth="10" markerHeight="7" refX="9" refY="3.5" orient="auto">
      <polygon points="0 0, 10 3.5, 0 7" fill="#c9c5b6"/>
    </marker>
    <marker id="arrowF" markerWidth="10" markerHeight="7" refX="9" refY="3.5" orient="auto">
      <polygon points="0 0, 10 3.5, 0 7" fill="#8b8899"/>
    </marker>
    <marker id="arrowG" markerWidth="10" markerHeight="7" refX="9" refY="3.5" orient="auto">
      <polygon points="0 0, 10 3.5, 0 7" fill="#e6a562"/>
    </marker>
    <marker id="arrowH" markerWidth="10" markerHeight="7" refX="9" refY="3.5" orient="auto">
      <polygon points="0 0, 10 3.5, 0 7" fill="#8b8899"/>
    </marker>
    <filter id="editorialGrain" x="0" y="0" width="100%" height="100%">
      <feTurbulence type="fractalNoise" baseFrequency="0.9" numOctaves="2" stitchTiles="stitch"/>
      <feColorMatrix values="0 0 0 0 1  0 0 0 0 1  0 0 0 0 1  0 0 0 0.08 0"/>
    </filter>
    <radialGradient id="editorialTopGlow" cx="50%" cy="0%" r="80%">
      <stop offset="0%" stop-color="#e6a562" stop-opacity="0.12"/>
      <stop offset="100%" stop-color="#e6a562" stop-opacity="0"/>
    </radialGradient>
    <style>
    text { font-family: 'Inter', 'Noto Sans', 'Helvetica Neue', 'DejaVu Sans', sans-serif; }
    .title { font-size: 46px; font-weight: 700; fill: #f5efe0; font-family: 'Playfair Display', 'Noto Serif Display', 'DejaVu Serif', Georgia, serif; }
    .subtitle { font-size: 12px; font-weight: 500; fill: #e6a562; letter-spacing: 0.3em; text-transform: uppercase; }
    .section { font-size: 13px; font-weight: 700; fill: #f5efe0; letter-spacing: 1.4px; }
    .section-sub { font-size: 12px; font-weight: 500; fill: #b5b3a8; }
    .node-title { font-size: 18px; font-weight: 700; fill: #f5efe0; }
    .node-sub { font-size: 12px; font-weight: 500; fill: #d4cfbf; }
    .node-type { font-size: 10px; font-weight: 700; fill: #b5b3a8; letter-spacing: 0.08em; }
    .arrow-label { font-size: 12px; font-weight: 600; fill: #c9c5b6; }
    .legend { font-size: 12px; font-weight: 500; fill: #d4cfbf; }
    .footnote { font-size: 12px; font-weight: 500; fill: #b5b3a8; }
    </style>
  </defs>
  <rect width="1280.0" height="560.0" fill="#15151e"/>
  <rect width="1280.0" height="308.0" fill="url(#editorialTopGlow)"/>
  <rect width="1280.0" height="560.0" filter="url(#editorialGrain)" opacity="0.6"/>
  <text x="640.0" y="56" text-anchor="middle" class="title">I2C Sensor Tree</text>
  <text x="640.0" y="82" text-anchor="middle" class="subtitle">One I2C bus · TCA9548A mux splits duplicate SHT45 addresses across channels</text>
  <path d="M 260.0,265.0 L 420.0,265.0" fill="none" stroke="#c9c5b6" stroke-width="1.6" marker-end="url(#arrowA)"/>
  <path d="M 640.0,265.0 L 660.4,265.0 L 779.6,161.0 L 800.0,161.0" fill="none" stroke="#c9c5b6" stroke-width="1.6" marker-end="url(#arrowA)"/>
  <path d="M 640.0,265.0 L 660.4,265.0 L 779.6,251.0 L 800.0,251.0" fill="none" stroke="#c9c5b6" stroke-width="1.6" marker-end="url(#arrowA)"/>
  <path d="M 640.0,265.0 L 660.4,265.0 L 779.6,341.0 L 800.0,341.0" fill="none" stroke="#c9c5b6" stroke-width="1.6" marker-end="url(#arrowA)"/>
  <path d="M 260.0,265.0 L 700.0,428.0 L 800.0,428.0" fill="none" stroke="#c9c5b6" stroke-width="1.6" marker-end="url(#arrowA)" stroke-dasharray="6,4"/>
  <path d="M 260.0,265.0 L 700.0,428.0 L 1060.0,428.0" fill="none" stroke="#c9c5b6" stroke-width="1.6" marker-end="url(#arrowA)" stroke-dasharray="6,4"/>
  <rect x="40.0" y="220.0" width="220.0" height="90.0" rx="8.0" fill="#24222f" stroke="#e6a562" stroke-width="2.0"/>
  <rect x="46.0" y="226.0" width="208.0" height="78.0" rx="5.0" fill="none" stroke="#e6a562" stroke-width="1.2" opacity="0.65"/>
  <text x="150.0" y="238.0" text-anchor="middle" class="node-type">ORCHESTRATOR</text>
  <text x="150.0" y="271.0" text-anchor="middle" class="node-title">ESP32-S3</text>
  <text x="150.0" y="293.0" text-anchor="middle" class="node-sub">SDA GPIO 21 · SCL GPIO 9</text>
  <rect x="420.0" y="220.0" width="220.0" height="90.0" rx="8.0" fill="#24222f" stroke="#6fd1b4" stroke-width="2.0"/>
  <rect x="426.0" y="226.0" width="208.0" height="78.0" rx="5.0" fill="none" stroke="#6fd1b4" stroke-width="1.2" opacity="0.65"/>
  <text x="530.0" y="238.0" text-anchor="middle" class="node-type">MUX</text>
  <text x="530.0" y="271.0" text-anchor="middle" class="node-title">TCA9548A</text>
  <text x="530.0" y="293.0" text-anchor="middle" class="node-sub">mux · 0x70</text>
  <rect x="800.0" y="130.0" width="220.0" height="62.0" rx="8.0" fill="#24222f" stroke="rgba(245,239,224,0.18)" stroke-width="1.8"/>
  <text x="910.0" y="161.0" text-anchor="middle" class="node-title">SHT45</text>
  <text x="910.0" y="183.0" text-anchor="middle" class="node-sub">top shelf · 0x44</text>
  <rect x="800.0" y="220.0" width="220.0" height="62.0" rx="8.0" fill="#24222f" stroke="rgba(245,239,224,0.18)" stroke-width="1.8"/>
  <text x="910.0" y="251.0" text-anchor="middle" class="node-title">SHT45</text>
  <text x="910.0" y="273.0" text-anchor="middle" class="node-sub">mid shelf · 0x44</text>
  <rect x="800.0" y="310.0" width="220.0" height="62.0" rx="8.0" fill="#24222f" stroke="rgba(245,239,224,0.18)" stroke-width="1.8"/>
  <text x="910.0" y="341.0" text-anchor="middle" class="node-title">SHT45</text>
  <text x="910.0" y="363.0" text-anchor="middle" class="node-sub">bot shelf · 0x44</text>
  <rect x="800.0" y="402.0" width="220.0" height="52.0" rx="8.0" fill="#24222f" stroke="rgba(245,239,224,0.18)" stroke-width="1.8"/>
  <text x="910.0" y="428.0" text-anchor="middle" class="node-title">SCD30</text>
  <text x="910.0" y="450.0" text-anchor="middle" class="node-sub">CO2 · 0x61</text>
  <rect x="1060.0" y="402.0" width="200.0" height="52.0" rx="8.0" fill="#24222f" stroke="rgba(245,239,224,0.18)" stroke-width="1.8"/>
  <text x="1160.0" y="428.0" text-anchor="middle" class="node-title">AS7341</text>
  <text x="1160.0" y="450.0" text-anchor="middle" class="node-sub">light · 0x39</text>
  <rect x="305.0" y="235.0" width="70" height="20" rx="6" fill="#15151e" opacity="1"/>
  <text x="340.0" y="249.0" text-anchor="middle" class="arrow-label">main bus</text>
  <rect x="699.0" y="183.0" width="42" height="20" rx="6" fill="#15151e" opacity="1"/>
  <text x="720.0" y="197.0" text-anchor="middle" class="arrow-label">ch 0</text>
  <rect x="699.0" y="228.0" width="42" height="20" rx="6" fill="#15151e" opacity="1"/>
  <text x="720.0" y="242.0" text-anchor="middle" class="arrow-label">ch 1</text>
  <rect x="699.0" y="273.0" width="42" height="20" rx="6" fill="#15151e" opacity="1"/>
  <text x="720.0" y="287.0" text-anchor="middle" class="arrow-label">ch 2</text>
</svg>