<svg xmlns="http://www.w3.org/2000/svg" viewBox="0 0 1280 820" width="1280" height="820">
  <defs>
    <marker id="arrowA" markerWidth="10" markerHeight="7" refX="9" refY="3.5" orient="auto">
      <polygon points="0 0, 10 3.5, 0 7" fill="#c9c5b6"/>
    </marker>
    <marker id="arrowB" markerWidth="10" markerHeight="7" refX="9" refY="3.5" orient="auto">
      <polygon points="0 0, 10 3.5, 0 7" fill="#6fd1b4"/>
    </marker>
    <marker id="arrowC" markerWidth="10" markerHeight="7" refX="9" refY="3.5" orient="auto">
      <polygon points="0 0, 10 3.5, 0 7" fill="#c9c5b6"/>
    </marker>
    <marker id="arrowE" markerWidth="10" markerHeight="7" refX="9" refY="3.5" orient="auto">
      <polygon points="0 0, 10 3.5, 0 7" fill="#c9c5b6"/>
    </marker>
    <marker id="arrowF" markerWidth="10" markerHeight="7" refX="9" refY="3.5" orient="auto">
      <polygon points="0 0, 10 3.5, 0 7" fill="#8b8899"/>
    </marker>
    <marker id="arrowG" markerWidth="10" markerHeight="7" refX="9" refY="3.5" orient="auto">
      <polygon points="0 0, 10 3.5, 0 7" fill="#e6a562"/>
    </marker>
    <marker id="arrowH" markerWidth="10" markerHeight="7" refX="9" refY="3.5" orient="auto">
      <polygon points="0 0, 10 3.5, 0 7" fill="#8b8899"/>
    </marker>
    <filter id="editorialGrain" x="0" y="0" width="100%" height="100%">
      <feTurbulence type="fractalNoise" baseFrequency="0.9" numOctaves="2" stitchTiles="stitch"/>
      <feColorMatrix values="0 0 0 0 1  0 0 0 0 1  0 0 0 0 1  0 0 0 0.08 0"/>
    </filter>
    <radialGradient id="editorialTopGlow" cx="50%" cy="0%" r="80%">
      <stop offset="0%" stop-color="#e6a562" stop-opacity="0.12"/>
      <stop offset="100%" stop-color="#e6a562" stop-opacity="0"/>
    </radialGradient>
    <style>
    text { font-family: 'Inter', 'Noto Sans', 'Helvetica Neue', 'DejaVu Sans', sans-serif; }
    .title { font-size: 46px; font-weight: 700; fill: #f5efe0; font-family: 'Playfair Display', 'Noto Serif Display', 'DejaVu Serif', Georgia, serif; }
    .subtitle { font-size: 12px; font-weight: 500; fill: #e6a562; letter-spacing: 0.3em; text-transform: uppercase; }
    .section { font-size: 13px; font-weight: 700; fill: #f5efe0; letter-spacing: 1.4px; }
    .section-sub { font-size: 12px; font-weight: 500; fill: #b5b3a8; }
    .node-title { font-size: 18px; font-weight: 700; fill: #f5efe0; }
    .node-sub { font-size: 12px; font-weight: 500; fill: #d4cfbf; }
    .node-type { font-size: 10px; font-weight: 700; fill: #b5b3a8; letter-spacing: 0.08em; }
    .arrow-label { font-size: 12px; font-weight: 600; fill: #c9c5b6; }
    .legend { font-size: 12px; font-weight: 500; fill: #d4cfbf; }
    .footnote { font-size: 12px; font-weight: 500; fill: #b5b3a8; }
    </style>
  </defs>
  <rect width="1280.0" height="820.0" fill="#15151e"/>
  <rect width="1280.0" height="400" fill="url(#editorialTopGlow)"/>
  <rect width="1280.0" height="820.0" filter="url(#editorialGrain)" opacity="0.6"/>
  <text x="640.0" y="56" text-anchor="middle" class="title">ESP32-S3 Pinout</text>
  <text x="640.0" y="82" text-anchor="middle" class="subtitle">One bus per interface — I2C for sensors, 1-Wire for temps, ADC for water, 8 relay outputs</text>
  <rect x="440.0" y="140.0" width="260.0" height="560.0" rx="16.0" fill="none" stroke="rgba(245,239,224,0.12)" stroke-width="1.4"/>
  <text x="458.0" y="164.0" class="section">MCU // ESP32-S3 DEVKITC-1</text>
  <rect x="40.0" y="140.0" width="360.0" height="260.0" rx="16.0" fill="none" stroke="rgba(245,239,224,0.12)" stroke-width="1.4"/>
  <text x="58.0" y="164.0" class="section">I2C // I2C · GPIO 21 SDA / GPIO 9 SCL</text>
  <rect x="40.0" y="430.0" width="360.0" height="130.0" rx="16.0" fill="none" stroke="rgba(245,239,224,0.12)" stroke-width="1.4"/>
  <text x="58.0" y="454.0" class="section">OW // 1-WIRE · GPIO 4</text>
  <rect x="40.0" y="590.0" width="360.0" height="110.0" rx="16.0" fill="none" stroke="rgba(245,239,224,0.12)" stroke-width="1.4"/>
  <text x="58.0" y="614.0" class="section">ADC // ADC · GPIO 7</text>
  <rect x="740.0" y="140.0" width="500.0" height="560.0" rx="16.0" fill="none" stroke="rgba(245,239,224,0.12)" stroke-width="1.4"/>
  <text x="758.0" y="164.0" class="section">OUT // RELAY OUTPUTS · ACTIVE LOW</text>
  <path d="M 360.0,225.0 L 380.4,225.0 L 449.6,430.0 L 470.0,430.0" fill="none" stroke="#c9c5b6" stroke-width="1.6" marker-end="url(#arrowA)"/>
  <path d="M 360.0,285.0 L 380.4,285.0 L 449.6,430.0 L 470.0,430.0" fill="none" stroke="#c9c5b6" stroke-width="1.6" marker-end="url(#arrowA)"/>
  <path d="M 360.0,345.0 L 380.4,345.0 L 449.6,430.0 L 470.0,430.0" fill="none" stroke="#c9c5b6" stroke-width="1.6" marker-end="url(#arrowA)"/>
  <path d="M 360.0,509.0 L 380.4,509.0 L 449.6,430.0 L 470.0,430.0" fill="none" stroke="#c9c5b6" stroke-width="1.6" marker-end="url(#arrowA)"/>
  <path d="M 360.0,654.0 L 380.4,654.0 L 449.6,430.0 L 470.0,430.0" fill="none" stroke="#c9c5b6" stroke-width="1.6" marker-end="url(#arrowA)"/>
  <path d="M 670.0,430.0 L 690.4,430.0 L 749.6,204.0 L 770.0,204.0" fill="none" stroke="#c9c5b6" stroke-width="1.6" marker-end="url(#arrowA)"/>
  <path d="M 670.0,430.0 L 690.4,430.0 L 749.6,268.0 L 770.0,268.0" fill="none" stroke="#c9c5b6" stroke-width="1.6" marker-end="url(#arrowA)"/>
  <path d="M 670.0,430.0 L 690.4,430.0 L 749.6,332.0 L 770.0,332.0" fill="none" stroke="#c9c5b6" stroke-width="1.6" marker-end="url(#arrowA)"/>
  <path d="M 670.0,430.0 L 690.4,430.0 L 749.6,396.0 L 770.0,396.0" fill="none" stroke="#c9c5b6" stroke-width="1.6" marker-end="url(#arrowA)"/>
  <path d="M 670.0,430.0 L 979.6,430.0 L 979.6,204.0 L 1000.0,204.0" fill="none" stroke="#c9c5b6" stroke-width="1.6" marker-end="url(#arrowA)"/>
  <path d="M 670.0,430.0 L 979.6,430.0 L 979.6,268.0 L 1000.0,268.0" fill="none" stroke="#c9c5b6" stroke-width="1.6" marker-end="url(#arrowA)"/>
  <path d="M 670.0,430.0 L 979.6,430.0 L 979.6,332.0 L 1000.0,332.0" fill="none" stroke="#c9c5b6" stroke-width="1.6" marker-end="url(#arrowA)"/>
  <path d="M 670.0,430.0 L 979.6,430.0 L 979.6,396.0 L 1000.0,396.0" fill="none" stroke="#c9c5b6" stroke-width="1.6" marker-end="url(#arrowA)"/>
  <rect x="470.0" y="380.0" width="200.0" height="100.0" rx="8.0" fill="#24222f" stroke="#e6a562" stroke-width="2.0"/>
  <rect x="476.0" y="386.0" width="188.0" height="88.0" rx="5.0" fill="none" stroke="#e6a562" stroke-width="1.2" opacity="0.65"/>
  <text x="570.0" y="398.0" text-anchor="middle" class="node-type">ORCHESTRATOR</text>
  <text x="570.0" y="436.0" text-anchor="middle" class="node-title">ESP32-S3</text>
  <text x="570.0" y="458.0" text-anchor="middle" class="node-sub">DevKitC-1</text>
  <rect x="80.0" y="200.0" width="280.0" height="50.0" rx="8.0" fill="#24222f" stroke="rgba(245,239,224,0.18)" stroke-width="1.8"/>
  <text x="220.0" y="225.0" text-anchor="middle" class="node-title">TCA9548A mux</text>
  <text x="220.0" y="247.0" text-anchor="middle" class="node-sub">0x70</text>
  <rect x="80.0" y="260.0" width="280.0" height="50.0" rx="8.0" fill="#24222f" stroke="rgba(245,239,224,0.18)" stroke-width="1.8"/>
  <text x="220.0" y="285.0" text-anchor="middle" class="node-title">SCD30 CO2</text>
  <text x="220.0" y="307.0" text-anchor="middle" class="node-sub">0x61</text>
  <rect x="80.0" y="320.0" width="280.0" height="50.0" rx="8.0" fill="#24222f" stroke="rgba(245,239,224,0.18)" stroke-width="1.8"/>
  <text x="220.0" y="345.0" text-anchor="middle" class="node-title">AS7341 light</text>
  <text x="220.0" y="367.0" text-anchor="middle" class="node-sub">0x39</text>
  <rect x="80.0" y="478.0" width="280.0" height="62.0" rx="8.0" fill="#24222f" stroke="rgba(245,239,224,0.18)" stroke-width="1.8"/>
  <text x="220.0" y="509.0" text-anchor="middle" class="node-title">DS18B20 × 5</text>
  <text x="220.0" y="531.0" text-anchor="middle" class="node-sub">substrate temps</text>
  <rect x="80.0" y="628.0" width="280.0" height="52.0" rx="8.0" fill="#24222f" stroke="rgba(245,239,224,0.18)" stroke-width="1.8"/>
  <text x="220.0" y="654.0" text-anchor="middle" class="node-title">KIT0139</text>
  <text x="220.0" y="676.0" text-anchor="middle" class="node-sub">water level</text>
  <rect x="770.0" y="178.0" width="200.0" height="52.0" rx="8.0" fill="#24222f" stroke="rgba(245,239,224,0.18)" stroke-width="1.8"/>
  <text x="870.0" y="204.0" text-anchor="middle" class="node-title">Fogger</text>
  <text x="870.0" y="226.0" text-anchor="middle" class="node-sub">GPIO 38</text>
  <rect x="770.0" y="242.0" width="200.0" height="52.0" rx="8.0" fill="#24222f" stroke="rgba(245,239,224,0.18)" stroke-width="1.8"/>
  <text x="870.0" y="268.0" text-anchor="middle" class="node-title">Tub fan</text>
  <text x="870.0" y="290.0" text-anchor="middle" class="node-sub">GPIO 39</text>
  <rect x="770.0" y="306.0" width="200.0" height="52.0" rx="8.0" fill="#24222f" stroke="rgba(245,239,224,0.18)" stroke-width="1.8"/>
  <text x="870.0" y="332.0" text-anchor="middle" class="node-title">Exhaust</text>
  <text x="870.0" y="354.0" text-anchor="middle" class="node-sub">GPIO 18</text>
  <rect x="770.0" y="370.0" width="200.0" height="52.0" rx="8.0" fill="#24222f" stroke="rgba(245,239,224,0.18)" stroke-width="1.8"/>
  <text x="870.0" y="396.0" text-anchor="middle" class="node-title">Intake</text>
  <text x="870.0" y="418.0" text-anchor="middle" class="node-sub">GPIO 19</text>
  <rect x="1000.0" y="178.0" width="220.0" height="52.0" rx="8.0" fill="#24222f" stroke="rgba(245,239,224,0.18)" stroke-width="1.8"/>
  <text x="1110.0" y="204.0" text-anchor="middle" class="node-title">UVC</text>
  <text x="1110.0" y="226.0" text-anchor="middle" class="node-sub">GPIO 40 · 10 s guard</text>
  <rect x="1000.0" y="242.0" width="220.0" height="52.0" rx="8.0" fill="#24222f" stroke="rgba(245,239,224,0.18)" stroke-width="1.8"/>
  <text x="1110.0" y="268.0" text-anchor="middle" class="node-title">Grow lights</text>
  <text x="1110.0" y="290.0" text-anchor="middle" class="node-sub">GPIO 41</text>
  <rect x="1000.0" y="306.0" width="220.0" height="52.0" rx="8.0" fill="#24222f" stroke="rgba(245,239,224,0.18)" stroke-width="1.8"/>
  <text x="1110.0" y="332.0" text-anchor="middle" class="node-title">Pump (opt)</text>
  <text x="1110.0" y="354.0" text-anchor="middle" class="node-sub">GPIO 42</text>
  <rect x="1000.0" y="370.0" width="220.0" height="52.0" rx="8.0" fill="#24222f" stroke="rgba(245,239,224,0.18)" stroke-width="1.8"/>
  <text x="1110.0" y="396.0" text-anchor="middle" class="node-title">Spare</text>
  <text x="1110.0" y="418.0" text-anchor="middle" class="node-sub">GPIO 47</text>
  <line x1="40.0" y1="740.0" x2="70.0" y2="740.0" stroke="#c9c5b6" stroke-width="1.6" marker-end="url(#arrowA)"/>
  <text x="80.0" y="744.0" class="legend">Sensor read</text>
  <line x1="40.0" y1="762.0" x2="70.0" y2="762.0" stroke="#c9c5b6" stroke-width="1.6" marker-end="url(#arrowA)"/>
  <text x="80.0" y="766.0" class="legend">Relay command (active LOW)</text>
</svg>