<svg xmlns="http://www.w3.org/2000/svg" viewBox="0 0 1280 480" width="1280" height="480">
  <defs>
    <marker id="arrowA" markerWidth="10" markerHeight="7" refX="9" refY="3.5" orient="auto">
      <polygon points="0 0, 10 3.5, 0 7" fill="#c9c5b6"/>
    </marker>
    <marker id="arrowB" markerWidth="10" markerHeight="7" refX="9" refY="3.5" orient="auto">
      <polygon points="0 0, 10 3.5, 0 7" fill="#6fd1b4"/>
    </marker>
    <marker id="arrowC" markerWidth="10" markerHeight="7" refX="9" refY="3.5" orient="auto">
      <polygon points="0 0, 10 3.5, 0 7" fill="#c9c5b6"/>
    </marker>
    <marker id="arrowE" markerWidth="10" markerHeight="7" refX="9" refY="3.5" orient="auto">
      <polygon points="0 0, 10 3.5, 0 7" fill="#c9c5b6"/>
    </marker>
    <marker id="arrowF" markerWidth="10" markerHeight="7" refX="9" refY="3.5" orient="auto">
      <polygon points="0 0, 10 3.5, 0 7" fill="#8b8899"/>
    </marker>
    <marker id="arrowG" markerWidth="10" markerHeight="7" refX="9" refY="3.5" orient="auto">
      <polygon points="0 0, 10 3.5, 0 7" fill="#e6a562"/>
    </marker>
    <marker id="arrowH" markerWidth="10" markerHeight="7" refX="9" refY="3.5" orient="auto">
      <polygon points="0 0, 10 3.5, 0 7" fill="#8b8899"/>
    </marker>
    <filter id="editorialGrain" x="0" y="0" width="100%" height="100%">
      <feTurbulence type="fractalNoise" baseFrequency="0.9" numOctaves="2" stitchTiles="stitch"/>
      <feColorMatrix values="0 0 0 0 1  0 0 0 0 1  0 0 0 0 1  0 0 0 0.08 0"/>
    </filter>
    <radialGradient id="editorialTopGlow" cx="50%" cy="0%" r="80%">
      <stop offset="0%" stop-color="#e6a562" stop-opacity="0.12"/>
      <stop offset="100%" stop-color="#e6a562" stop-opacity="0"/>
    </radialGradient>
    <style>
    text { font-family: 'Inter', 'Noto Sans', 'Helvetica Neue', 'DejaVu Sans', sans-serif; }
    .title { font-size: 46px; font-weight: 700; fill: #f5efe0; font-family: 'Playfair Display', 'Noto Serif Display', 'DejaVu Serif', Georgia, serif; }
    .subtitle { font-size: 12px; font-weight: 500; fill: #e6a562; letter-spacing: 0.3em; text-transform: uppercase; }
    .section { font-size: 13px; font-weight: 700; fill: #f5efe0; letter-spacing: 1.4px; }
    .section-sub { font-size: 12px; font-weight: 500; fill: #b5b3a8; }
    .node-title { font-size: 18px; font-weight: 700; fill: #f5efe0; }
    .node-sub { font-size: 12px; font-weight: 500; fill: #d4cfbf; }
    .node-type { font-size: 10px; font-weight: 700; fill: #b5b3a8; letter-spacing: 0.08em; }
    .arrow-label { font-size: 12px; font-weight: 600; fill: #c9c5b6; }
    .legend { font-size: 12px; font-weight: 500; fill: #d4cfbf; }
    .footnote { font-size: 12px; font-weight: 500; fill: #b5b3a8; }
    </style>
  </defs>
  <rect width="1280.0" height="480.0" fill="#15151e"/>
  <rect width="1280.0" height="264.0" fill="url(#editorialTopGlow)"/>
  <rect width="1280.0" height="480.0" filter="url(#editorialGrain)" opacity="0.6"/>
  <text x="640.0" y="56" text-anchor="middle" class="title">Mains Load Wiring</text>
  <text x="640.0" y="82" text-anchor="middle" class="subtitle">Only Hot is switched by the relay · Neutral and Earth bus straight through</text>
  <path d="M 340.0,140.0 L 840.0,140.0" fill="none" stroke="#c9c5b6" stroke-width="1.6" marker-end="url(#arrowA)"/>
  <path d="M 340.0,260.0 L 840.0,260.0" fill="none" stroke="#6fd1b4" stroke-width="1.6" marker-end="url(#arrowB)"/>
  <path d="M 340.0,380.0 L 840.0,380.0" fill="none" stroke="#c9c5b6" stroke-width="1.6" marker-end="url(#arrowA)" stroke-dasharray="6,4"/>
  <rect x="40.0" y="100.0" width="300.0" height="80.0" rx="8.0" fill="#24222f" stroke="#e6a562" stroke-width="2.0"/>
  <rect x="46.0" y="106.0" width="288.0" height="68.0" rx="5.0" fill="none" stroke="#e6a562" stroke-width="1.2" opacity="0.65"/>
  <text x="190.0" y="118.0" text-anchor="middle" class="node-type">SWITCHED</text>
  <text x="190.0" y="146.0" text-anchor="middle" class="node-title">Load Hot</text>
  <text x="190.0" y="168.0" text-anchor="middle" class="node-sub">Black / Brown</text>
  <rect x="40.0" y="220.0" width="300.0" height="80.0" rx="8.0" fill="#24222f" stroke="rgba(245,239,224,0.18)" stroke-width="1.8"/>
  <text x="190.0" y="260.0" text-anchor="middle" class="node-title">Load Neutral</text>
  <text x="190.0" y="282.0" text-anchor="middle" class="node-sub">White / Blue</text>
  <rect x="40.0" y="340.0" width="300.0" height="80.0" rx="8.0" fill="#24222f" stroke="#6fd1b4" stroke-width="1.8"/>
  <text x="190.0" y="380.0" text-anchor="middle" class="node-title">Load Earth</text>
  <text x="190.0" y="402.0" text-anchor="middle" class="node-sub">Green / Bare</text>
  <rect x="840.0" y="100.0" width="300.0" height="80.0" rx="8.0" fill="#24222f" stroke="rgba(245,239,224,0.18)" stroke-width="2.0"/>
  <rect x="846.0" y="106.0" width="288.0" height="68.0" rx="5.0" fill="none" stroke="rgba(245,239,224,0.18)" stroke-width="1.2" opacity="0.65"/>
  <text x="990.0" y="140.0" text-anchor="middle" class="node-title">Relay NO</text>
  <text x="990.0" y="162.0" text-anchor="middle" class="node-sub">normally open contact</text>
  <rect x="840.0" y="220.0" width="300.0" height="80.0" rx="8.0" fill="#24222f" stroke="rgba(245,239,224,0.18)" stroke-width="1.8"/>
  <text x="990.0" y="260.0" text-anchor="middle" class="node-title">Neutral bus</text>
  <text x="990.0" y="282.0" text-anchor="middle" class="node-sub">daisy-chain all loads</text>
  <rect x="840.0" y="340.0" width="300.0" height="80.0" rx="8.0" fill="#24222f" stroke="rgba(245,239,224,0.18)" stroke-width="1.8"/>
  <text x="990.0" y="380.0" text-anchor="middle" class="node-title">Earth bus</text>
  <text x="990.0" y="402.0" text-anchor="middle" class="node-sub">earthed loads only</text>
  <rect x="523.5" y="350.0" width="133" height="20" rx="6" fill="#15151e" opacity="1"/>
  <text x="590.0" y="364.0" text-anchor="middle" class="arrow-label">only when earthed</text>
  <line x1="40.0" y1="440.0" x2="70.0" y2="440.0" stroke="#c9c5b6" stroke-width="1.6" marker-end="url(#arrowA)"/>
  <text x="80.0" y="444.0" class="legend">Switched Hot — routed through relay contact</text>
  <line x1="40.0" y1="462.0" x2="70.0" y2="462.0" stroke="#6fd1b4" stroke-width="1.6" marker-end="url(#arrowB)"/>
  <text x="80.0" y="466.0" class="legend">Neutral — shared bus, never switched</text>
  <line x1="40.0" y1="484.0" x2="70.0" y2="484.0" stroke="#c9c5b6" stroke-width="1.6" marker-end="url(#arrowA)"/>
  <text x="80.0" y="488.0" class="legend">Earth — optional, only for earthed loads</text>
</svg>