<svg xmlns="http://www.w3.org/2000/svg" viewBox="0 0 1200 460" width="1200" height="460">
  <defs>
    <marker id="arrowA" markerWidth="10" markerHeight="7" refX="9" refY="3.5" orient="auto">
      <polygon points="0 0, 10 3.5, 0 7" fill="#c9c5b6"/>
    </marker>
    <marker id="arrowB" markerWidth="10" markerHeight="7" refX="9" refY="3.5" orient="auto">
      <polygon points="0 0, 10 3.5, 0 7" fill="#6fd1b4"/>
    </marker>
    <marker id="arrowC" markerWidth="10" markerHeight="7" refX="9" refY="3.5" orient="auto">
      <polygon points="0 0, 10 3.5, 0 7" fill="#c9c5b6"/>
    </marker>
    <marker id="arrowE" markerWidth="10" markerHeight="7" refX="9" refY="3.5" orient="auto">
      <polygon points="0 0, 10 3.5, 0 7" fill="#c9c5b6"/>
    </marker>
    <marker id="arrowF" markerWidth="10" markerHeight="7" refX="9" refY="3.5" orient="auto">
      <polygon points="0 0, 10 3.5, 0 7" fill="#8b8899"/>
    </marker>
    <marker id="arrowG" markerWidth="10" markerHeight="7" refX="9" refY="3.5" orient="auto">
      <polygon points="0 0, 10 3.5, 0 7" fill="#e6a562"/>
    </marker>
    <marker id="arrowH" markerWidth="10" markerHeight="7" refX="9" refY="3.5" orient="auto">
      <polygon points="0 0, 10 3.5, 0 7" fill="#8b8899"/>
    </marker>
    <filter id="editorialGrain" x="0" y="0" width="100%" height="100%">
      <feTurbulence type="fractalNoise" baseFrequency="0.9" numOctaves="2" stitchTiles="stitch"/>
      <feColorMatrix values="0 0 0 0 1  0 0 0 0 1  0 0 0 0 1  0 0 0 0.08 0"/>
    </filter>
    <radialGradient id="editorialTopGlow" cx="50%" cy="0%" r="80%">
      <stop offset="0%" stop-color="#e6a562" stop-opacity="0.12"/>
      <stop offset="100%" stop-color="#e6a562" stop-opacity="0"/>
    </radialGradient>
    <style>
    text { font-family: 'Inter', 'Noto Sans', 'Helvetica Neue', 'DejaVu Sans', sans-serif; }
    .title { font-size: 46px; font-weight: 700; fill: #f5efe0; font-family: 'Playfair Display', 'Noto Serif Display', 'DejaVu Serif', Georgia, serif; }
    .subtitle { font-size: 12px; font-weight: 500; fill: #e6a562; letter-spacing: 0.3em; text-transform: uppercase; }
    .section { font-size: 13px; font-weight: 700; fill: #f5efe0; letter-spacing: 1.4px; }
    .section-sub { font-size: 12px; font-weight: 500; fill: #b5b3a8; }
    .node-title { font-size: 18px; font-weight: 700; fill: #f5efe0; }
    .node-sub { font-size: 12px; font-weight: 500; fill: #d4cfbf; }
    .node-type { font-size: 10px; font-weight: 700; fill: #b5b3a8; letter-spacing: 0.08em; }
    .arrow-label { font-size: 12px; font-weight: 600; fill: #c9c5b6; }
    .legend { font-size: 12px; font-weight: 500; fill: #d4cfbf; }
    .footnote { font-size: 12px; font-weight: 500; fill: #b5b3a8; }
    </style>
  </defs>
  <rect width="1200.0" height="460.0" fill="#15151e"/>
  <rect width="1200.0" height="253.00000000000003" fill="url(#editorialTopGlow)"/>
  <rect width="1200.0" height="460.0" filter="url(#editorialGrain)" opacity="0.6"/>
  <text x="600.0" y="56" text-anchor="middle" class="title">1-Wire Bus</text>
  <text x="600.0" y="82" text-anchor="middle" class="subtitle">One GPIO drives five daisy-chained DS18B20 probes · 2.2 kΩ pull-up + 100 nF decoupling</text>
  <path d="M 240.0,220.0 L 460.0,220.0" fill="none" stroke="#c9c5b6" stroke-width="1.6" marker-end="url(#arrowA)"/>
  <path d="M 680.0,220.0 L 900.0,220.0" fill="none" stroke="#c9c5b6" stroke-width="1.6" marker-end="url(#arrowA)"/>
  <path d="M 570.0,260.0 L 570.0,340.0" fill="none" stroke="#6fd1b4" stroke-width="1.6" marker-end="url(#arrowB)" stroke-dasharray="6,4"/>
  <rect x="60.0" y="180.0" width="180.0" height="80.0" rx="8.0" fill="#24222f" stroke="#e6a562" stroke-width="2.0"/>
  <rect x="66.0" y="186.0" width="168.0" height="68.0" rx="5.0" fill="none" stroke="#e6a562" stroke-width="1.2" opacity="0.65"/>
  <text x="150.0" y="198.0" text-anchor="middle" class="node-type">RAIL</text>
  <text x="150.0" y="226.0" text-anchor="middle" class="node-title">3.3 V</text>
  <rect x="460.0" y="180.0" width="220.0" height="80.0" rx="8.0" fill="#24222f" stroke="rgba(245,239,224,0.18)" stroke-width="1.8"/>
  <text x="570.0" y="220.0" text-anchor="middle" class="node-title">GPIO 4</text>
  <text x="570.0" y="242.0" text-anchor="middle" class="node-sub">junction</text>
  <rect x="900.0" y="180.0" width="240.0" height="80.0" rx="8.0" fill="#24222f" stroke="rgba(245,239,224,0.18)" stroke-width="1.8"/>
  <text x="1020.0" y="220.0" text-anchor="middle" class="node-title">DS18B20 × 5</text>
  <text x="1020.0" y="242.0" text-anchor="middle" class="node-sub">daisy-chained</text>
  <rect x="460.0" y="340.0" width="220.0" height="60.0" rx="8.0" fill="#24222f" stroke="rgba(245,239,224,0.18)" stroke-width="1.8"/>
  <text x="570.0" y="370.0" text-anchor="middle" class="node-title">GND</text>
  <rect x="294.0" y="190.0" width="112" height="20" rx="6" fill="#15151e" opacity="1"/>
  <text x="350.0" y="204.0" text-anchor="middle" class="arrow-label">2.2 kΩ pull-up</text>
  <rect x="751.5" y="190.0" width="77" height="20" rx="6" fill="#15151e" opacity="1"/>
  <text x="790.0" y="204.0" text-anchor="middle" class="arrow-label">data line</text>
  <rect x="510.0" y="286.0" width="84" height="20" rx="6" fill="#15151e" opacity="1"/>
  <text x="552.0" y="300.0" text-anchor="middle" class="arrow-label">100 nF cap</text>
</svg>