<svg xmlns="http://www.w3.org/2000/svg" viewBox="0 0 1280 620" width="1280" height="620">
  <defs>
    <marker id="arrowA" markerWidth="10" markerHeight="7" refX="9" refY="3.5" orient="auto">
      <polygon points="0 0, 10 3.5, 0 7" fill="#c9c5b6"/>
    </marker>
    <marker id="arrowB" markerWidth="10" markerHeight="7" refX="9" refY="3.5" orient="auto">
      <polygon points="0 0, 10 3.5, 0 7" fill="#6fd1b4"/>
    </marker>
    <marker id="arrowC" markerWidth="10" markerHeight="7" refX="9" refY="3.5" orient="auto">
      <polygon points="0 0, 10 3.5, 0 7" fill="#c9c5b6"/>
    </marker>
    <marker id="arrowE" markerWidth="10" markerHeight="7" refX="9" refY="3.5" orient="auto">
      <polygon points="0 0, 10 3.5, 0 7" fill="#c9c5b6"/>
    </marker>
    <marker id="arrowF" markerWidth="10" markerHeight="7" refX="9" refY="3.5" orient="auto">
      <polygon points="0 0, 10 3.5, 0 7" fill="#8b8899"/>
    </marker>
    <marker id="arrowG" markerWidth="10" markerHeight="7" refX="9" refY="3.5" orient="auto">
      <polygon points="0 0, 10 3.5, 0 7" fill="#e6a562"/>
    </marker>
    <marker id="arrowH" markerWidth="10" markerHeight="7" refX="9" refY="3.5" orient="auto">
      <polygon points="0 0, 10 3.5, 0 7" fill="#8b8899"/>
    </marker>
    <filter id="editorialGrain" x="0" y="0" width="100%" height="100%">
      <feTurbulence type="fractalNoise" baseFrequency="0.9" numOctaves="2" stitchTiles="stitch"/>
      <feColorMatrix values="0 0 0 0 1  0 0 0 0 1  0 0 0 0 1  0 0 0 0.08 0"/>
    </filter>
    <radialGradient id="editorialTopGlow" cx="50%" cy="0%" r="80%">
      <stop offset="0%" stop-color="#e6a562" stop-opacity="0.12"/>
      <stop offset="100%" stop-color="#e6a562" stop-opacity="0"/>
    </radialGradient>
    <style>
    text { font-family: 'Inter', 'Noto Sans', 'Helvetica Neue', 'DejaVu Sans', sans-serif; }
    .title { font-size: 46px; font-weight: 700; fill: #f5efe0; font-family: 'Playfair Display', 'Noto Serif Display', 'DejaVu Serif', Georgia, serif; }
    .subtitle { font-size: 12px; font-weight: 500; fill: #e6a562; letter-spacing: 0.3em; text-transform: uppercase; }
    .section { font-size: 13px; font-weight: 700; fill: #f5efe0; letter-spacing: 1.4px; }
    .section-sub { font-size: 12px; font-weight: 500; fill: #b5b3a8; }
    .node-title { font-size: 18px; font-weight: 700; fill: #f5efe0; }
    .node-sub { font-size: 12px; font-weight: 500; fill: #d4cfbf; }
    .node-type { font-size: 10px; font-weight: 700; fill: #b5b3a8; letter-spacing: 0.08em; }
    .arrow-label { font-size: 12px; font-weight: 600; fill: #c9c5b6; }
    .legend { font-size: 12px; font-weight: 500; fill: #d4cfbf; }
    .footnote { font-size: 12px; font-weight: 500; fill: #b5b3a8; }
    </style>
  </defs>
  <rect width="1280.0" height="620.0" fill="#15151e"/>
  <rect width="1280.0" height="341.0" fill="url(#editorialTopGlow)"/>
  <rect width="1280.0" height="620.0" filter="url(#editorialGrain)" opacity="0.6"/>
  <text x="640.0" y="56" text-anchor="middle" class="title">Control Loops</text>
  <text x="640.0" y="82" text-anchor="middle" class="subtitle">Two hysteresis cycles · CO2 controller drives FAE fans · IHC200 drives fogger</text>
  <rect x="40.0" y="130.0" width="580.0" height="420.0" rx="16.0" fill="none" stroke="rgba(245,239,224,0.12)" stroke-width="1.4"/>
  <text x="58.0" y="154.0" class="section">FAE // CO2 LOOP</text>
  <rect x="660.0" y="130.0" width="580.0" height="420.0" rx="16.0" fill="none" stroke="rgba(245,239,224,0.12)" stroke-width="1.4"/>
  <text x="678.0" y="154.0" class="section">RH // HUMIDITY LOOP</text>
  <path d="M 330.0,225.0 L 380.0,225.0" fill="none" stroke="#c9c5b6" stroke-width="1.6" marker-end="url(#arrowA)"/>
  <path d="M 480.0,260.0 L 480.0,410.0" fill="none" stroke="#c9c5b6" stroke-width="1.6" marker-end="url(#arrowA)"/>
  <path d="M 380.0,445.0 L 330.0,445.0" fill="none" stroke="#c9c5b6" stroke-width="1.6" marker-end="url(#arrowA)"/>
  <path d="M 230.0,410.0 L 230.0,260.0" fill="none" stroke="#c9c5b6" stroke-width="1.6" marker-end="url(#arrowA)"/>
  <path d="M 950.0,225.0 L 1000.0,225.0" fill="none" stroke="#6fd1b4" stroke-width="1.6" marker-end="url(#arrowB)"/>
  <path d="M 1100.0,260.0 L 1100.0,410.0" fill="none" stroke="#6fd1b4" stroke-width="1.6" marker-end="url(#arrowB)"/>
  <path d="M 1000.0,445.0 L 950.0,445.0" fill="none" stroke="#6fd1b4" stroke-width="1.6" marker-end="url(#arrowB)"/>
  <path d="M 850.0,410.0 L 850.0,260.0" fill="none" stroke="#6fd1b4" stroke-width="1.6" marker-end="url(#arrowB)"/>
  <path d="M 580.0,225.0 L 750.0,225.0" fill="none" stroke="#e6a562" stroke-width="1.6" marker-end="url(#arrowG)" stroke-dasharray="6,4"/>
  <rect x="130.0" y="190.0" width="200.0" height="70.0" rx="8.0" fill="#24222f" stroke="rgba(245,239,224,0.18)" stroke-width="1.8"/>
  <text x="230.0" y="225.0" text-anchor="middle" class="node-title">CO2 rises</text>
  <text x="230.0" y="247.0" text-anchor="middle" class="node-sub">blocks respire</text>
  <rect x="380.0" y="190.0" width="200.0" height="70.0" rx="8.0" fill="#24222f" stroke="#e6a562" stroke-width="2.0"/>
  <rect x="386.0" y="196.0" width="188.0" height="58.0" rx="5.0" fill="none" stroke="#e6a562" stroke-width="1.2" opacity="0.65"/>
  <text x="480.0" y="208.0" text-anchor="middle" class="node-type">TRIGGER</text>
  <text x="480.0" y="231.0" text-anchor="middle" class="node-title">FAE fans ON</text>
  <text x="480.0" y="253.0" text-anchor="middle" class="node-sub">hits 950 ppm</text>
  <rect x="380.0" y="410.0" width="200.0" height="70.0" rx="8.0" fill="#24222f" stroke="rgba(245,239,224,0.18)" stroke-width="1.8"/>
  <text x="480.0" y="445.0" text-anchor="middle" class="node-title">CO2 flushes out</text>
  <text x="480.0" y="467.0" text-anchor="middle" class="node-sub">~1–2 min</text>
  <rect x="130.0" y="410.0" width="200.0" height="70.0" rx="8.0" fill="#24222f" stroke="rgba(245,239,224,0.18)" stroke-width="1.8"/>
  <text x="230.0" y="445.0" text-anchor="middle" class="node-title">Fans OFF</text>
  <text x="230.0" y="467.0" text-anchor="middle" class="node-sub">drops to 650 ppm</text>
  <rect x="750.0" y="190.0" width="200.0" height="70.0" rx="8.0" fill="#24222f" stroke="rgba(245,239,224,0.18)" stroke-width="1.8"/>
  <text x="850.0" y="225.0" text-anchor="middle" class="node-title">RH drops</text>
  <text x="850.0" y="247.0" text-anchor="middle" class="node-sub">FAE exits humid air</text>
  <rect x="1000.0" y="190.0" width="200.0" height="70.0" rx="8.0" fill="#24222f" stroke="#e6a562" stroke-width="2.0"/>
  <rect x="1006.0" y="196.0" width="188.0" height="58.0" rx="5.0" fill="none" stroke="#e6a562" stroke-width="1.2" opacity="0.65"/>
  <text x="1100.0" y="208.0" text-anchor="middle" class="node-type">TRIGGER</text>
  <text x="1100.0" y="231.0" text-anchor="middle" class="node-title">Fogger + tub fan</text>
  <text x="1100.0" y="253.0" text-anchor="middle" class="node-sub">below 85%</text>
  <rect x="1000.0" y="410.0" width="200.0" height="70.0" rx="8.0" fill="#24222f" stroke="rgba(245,239,224,0.18)" stroke-width="1.8"/>
  <text x="1100.0" y="445.0" text-anchor="middle" class="node-title">Tent refills</text>
  <text x="1100.0" y="467.0" text-anchor="middle" class="node-sub">with fog</text>
  <rect x="750.0" y="410.0" width="200.0" height="70.0" rx="8.0" fill="#24222f" stroke="rgba(245,239,224,0.18)" stroke-width="1.8"/>
  <text x="850.0" y="445.0" text-anchor="middle" class="node-title">Fogger OFF</text>
  <text x="850.0" y="467.0" text-anchor="middle" class="node-sub">hits 87%</text>
  <rect x="567.0" y="211.0" width="196" height="20" rx="6" fill="#15151e" opacity="1"/>
  <text x="665.0" y="225.0" text-anchor="middle" class="arrow-label">FAE also removes humid air</text>
  <line x1="40.0" y1="560.0" x2="70.0" y2="560.0" stroke="#c9c5b6" stroke-width="1.6" marker-end="url(#arrowA)"/>
  <text x="80.0" y="564.0" class="legend">CO2 loop (hysteresis 650–950 ppm)</text>
  <line x1="40.0" y1="582.0" x2="70.0" y2="582.0" stroke="#6fd1b4" stroke-width="1.6" marker-end="url(#arrowB)"/>
  <text x="80.0" y="586.0" class="legend">Humidity loop (hysteresis 85–87%)</text>
  <line x1="40.0" y1="604.0" x2="70.0" y2="604.0" stroke="#e6a562" stroke-width="1.6" marker-end="url(#arrowG)"/>
  <text x="80.0" y="608.0" class="legend">Cross-coupling</text>
</svg>