<svg xmlns="http://www.w3.org/2000/svg" viewBox="0 0 1280 820" width="1280" height="820">
  <defs>
    <marker id="arrowA" markerWidth="10" markerHeight="7" refX="9" refY="3.5" orient="auto">
      <polygon points="0 0, 10 3.5, 0 7" fill="#c9c5b6"/>
    </marker>
    <marker id="arrowB" markerWidth="10" markerHeight="7" refX="9" refY="3.5" orient="auto">
      <polygon points="0 0, 10 3.5, 0 7" fill="#6fd1b4"/>
    </marker>
    <marker id="arrowC" markerWidth="10" markerHeight="7" refX="9" refY="3.5" orient="auto">
      <polygon points="0 0, 10 3.5, 0 7" fill="#c9c5b6"/>
    </marker>
    <marker id="arrowE" markerWidth="10" markerHeight="7" refX="9" refY="3.5" orient="auto">
      <polygon points="0 0, 10 3.5, 0 7" fill="#c9c5b6"/>
    </marker>
    <marker id="arrowF" markerWidth="10" markerHeight="7" refX="9" refY="3.5" orient="auto">
      <polygon points="0 0, 10 3.5, 0 7" fill="#8b8899"/>
    </marker>
    <marker id="arrowG" markerWidth="10" markerHeight="7" refX="9" refY="3.5" orient="auto">
      <polygon points="0 0, 10 3.5, 0 7" fill="#e6a562"/>
    </marker>
    <marker id="arrowH" markerWidth="10" markerHeight="7" refX="9" refY="3.5" orient="auto">
      <polygon points="0 0, 10 3.5, 0 7" fill="#8b8899"/>
    </marker>
    <filter id="editorialGrain" x="0" y="0" width="100%" height="100%">
      <feTurbulence type="fractalNoise" baseFrequency="0.9" numOctaves="2" stitchTiles="stitch"/>
      <feColorMatrix values="0 0 0 0 1  0 0 0 0 1  0 0 0 0 1  0 0 0 0.08 0"/>
    </filter>
    <radialGradient id="editorialTopGlow" cx="50%" cy="0%" r="80%">
      <stop offset="0%" stop-color="#e6a562" stop-opacity="0.12"/>
      <stop offset="100%" stop-color="#e6a562" stop-opacity="0"/>
    </radialGradient>
    <style>
    text { font-family: 'Inter', 'Noto Sans', 'Helvetica Neue', 'DejaVu Sans', sans-serif; }
    .title { font-size: 46px; font-weight: 700; fill: #f5efe0; font-family: 'Playfair Display', 'Noto Serif Display', 'DejaVu Serif', Georgia, serif; }
    .subtitle { font-size: 12px; font-weight: 500; fill: #e6a562; letter-spacing: 0.3em; text-transform: uppercase; }
    .section { font-size: 13px; font-weight: 700; fill: #f5efe0; letter-spacing: 1.4px; }
    .section-sub { font-size: 12px; font-weight: 500; fill: #b5b3a8; }
    .node-title { font-size: 18px; font-weight: 700; fill: #f5efe0; }
    .node-sub { font-size: 12px; font-weight: 500; fill: #d4cfbf; }
    .node-type { font-size: 10px; font-weight: 700; fill: #b5b3a8; letter-spacing: 0.08em; }
    .arrow-label { font-size: 12px; font-weight: 600; fill: #c9c5b6; }
    .legend { font-size: 12px; font-weight: 500; fill: #d4cfbf; }
    .footnote { font-size: 12px; font-weight: 500; fill: #b5b3a8; }
    </style>
  </defs>
  <rect width="1280.0" height="820.0" fill="#15151e"/>
  <rect width="1280.0" height="400" fill="url(#editorialTopGlow)"/>
  <rect width="1280.0" height="820.0" filter="url(#editorialGrain)" opacity="0.6"/>
  <text x="640.0" y="56" text-anchor="middle" class="title">Physical Airflow</text>
  <text x="640.0" y="82" text-anchor="middle" class="subtitle">Fogger reservoir pushes fog in · exhaust fans vent CO2 out · cross-flow keeps shelves healthy</text>
  <rect x="320.0" y="130.0" width="640.0" height="480.0" rx="16.0" fill="none" stroke="rgba(245,239,224,0.12)" stroke-width="1.4"/>
  <text x="338.0" y="154.0" class="section">TENT // MARTHA TENT</text>
  <rect x="40.0" y="430.0" width="260.0" height="180.0" rx="16.0" fill="none" stroke="rgba(245,239,224,0.12)" stroke-width="1.4"/>
  <text x="58.0" y="454.0" class="section">FOG // FOGGER RESERVOIR</text>
  <path d="M 150.0,230.0 L 150.0,270.0" fill="none" stroke="#c9c5b6" stroke-width="1.6" marker-end="url(#arrowA)"/>
  <path d="M 260.0,300.0 L 280.4,300.0 L 479.6,206.0 L 500.0,206.0" fill="none" stroke="#c9c5b6" stroke-width="1.6" marker-end="url(#arrowA)"/>
  <path d="M 280.0,583.0 L 360.0,583.0 L 360.0,206.0 L 500.0,206.0" fill="none" stroke="#6fd1b4" stroke-width="1.6" marker-end="url(#arrowB)"/>
  <path d="M 640.0,232.0 L 640.0,248.0" fill="none" stroke="#c9c5b6" stroke-width="1.6" marker-end="url(#arrowA)"/>
  <path d="M 640.0,300.0 L 640.0,316.0" fill="none" stroke="#c9c5b6" stroke-width="1.6" marker-end="url(#arrowA)"/>
  <path d="M 640.0,368.0 L 640.0,384.0" fill="none" stroke="#c9c5b6" stroke-width="1.6" marker-end="url(#arrowA)"/>
  <path d="M 640.0,436.0 L 640.0,452.0" fill="none" stroke="#c9c5b6" stroke-width="1.6" marker-end="url(#arrowA)"/>
  <path d="M 780.0,478.0 L 800.4,478.0 L 969.6,405.0 L 990.0,405.0" fill="none" stroke="#c9c5b6" stroke-width="1.6" marker-end="url(#arrowA)"/>
  <path d="M 1100.0,440.0 L 1100.0,480.0" fill="none" stroke="#c9c5b6" stroke-width="1.6" marker-end="url(#arrowA)"/>
  <rect x="40.0" y="170.0" width="220.0" height="60.0" rx="8.0" fill="#24222f" stroke="rgba(245,239,224,0.18)" stroke-width="1.8"/>
  <text x="150.0" y="200.0" text-anchor="middle" class="node-title">Room Air</text>
  <text x="150.0" y="222.0" text-anchor="middle" class="node-sub">ambient basement</text>
  <rect x="40.0" y="270.0" width="220.0" height="60.0" rx="8.0" fill="#24222f" stroke="#6fd1b4" stroke-width="1.8"/>
  <text x="150.0" y="300.0" text-anchor="middle" class="node-title">Intake Fan</text>
  <text x="150.0" y="322.0" text-anchor="middle" class="node-sub">4" waterproof</text>
  <rect x="60.0" y="470.0" width="220.0" height="48.0" rx="8.0" fill="#24222f" stroke="rgba(245,239,224,0.18)" stroke-width="1.8"/>
  <text x="170.0" y="494.0" text-anchor="middle" class="node-title">5-disc fogger</text>
  <rect x="60.0" y="528.0" width="220.0" height="30.0" rx="8.0" fill="#24222f" stroke="rgba(245,239,224,0.18)" stroke-width="1.8"/>
  <text x="170.0" y="543.0" text-anchor="middle" class="node-title">UVC — 1h ON / 4h OFF</text>
  <rect x="60.0" y="568.0" width="220.0" height="30.0" rx="8.0" fill="#24222f" stroke="rgba(245,239,224,0.18)" stroke-width="1.8"/>
  <text x="170.0" y="583.0" text-anchor="middle" class="node-title">Tub fan (blows down)</text>
  <rect x="500.0" y="180.0" width="280.0" height="52.0" rx="8.0" fill="#24222f" stroke="rgba(245,239,224,0.18)" stroke-width="1.8"/>
  <text x="640.0" y="206.0" text-anchor="middle" class="node-title">Shelf 4 — blocks</text>
  <rect x="500.0" y="248.0" width="280.0" height="52.0" rx="8.0" fill="#24222f" stroke="rgba(245,239,224,0.18)" stroke-width="1.8"/>
  <text x="640.0" y="274.0" text-anchor="middle" class="node-title">Shelf 3 — blocks</text>
  <rect x="500.0" y="316.0" width="280.0" height="52.0" rx="8.0" fill="#24222f" stroke="rgba(245,239,224,0.18)" stroke-width="1.8"/>
  <text x="640.0" y="342.0" text-anchor="middle" class="node-title">Shelf 2 — blocks</text>
  <rect x="500.0" y="384.0" width="280.0" height="52.0" rx="8.0" fill="#24222f" stroke="rgba(245,239,224,0.18)" stroke-width="1.8"/>
  <text x="640.0" y="410.0" text-anchor="middle" class="node-title">Shelf 1 — blocks</text>
  <rect x="500.0" y="452.0" width="280.0" height="52.0" rx="8.0" fill="#24222f" stroke="rgba(245,239,224,0.18)" stroke-width="1.8"/>
  <text x="640.0" y="478.0" text-anchor="middle" class="node-title">Drip tray + 6-mil liner</text>
  <rect x="990.0" y="370.0" width="220.0" height="70.0" rx="8.0" fill="#24222f" stroke="#e6a562" stroke-width="2.0"/>
  <rect x="996.0" y="376.0" width="208.0" height="58.0" rx="5.0" fill="none" stroke="#e6a562" stroke-width="1.2" opacity="0.65"/>
  <text x="1100.0" y="388.0" text-anchor="middle" class="node-type">FAE</text>
  <text x="1100.0" y="411.0" text-anchor="middle" class="node-title">AC Infinity S4</text>
  <text x="1100.0" y="433.0" text-anchor="middle" class="node-sub">exhaust fan × 2</text>
  <rect x="990.0" y="480.0" width="220.0" height="60.0" rx="8.0" fill="#24222f" stroke="rgba(245,239,224,0.18)" stroke-width="1.8"/>
  <text x="1100.0" y="510.0" text-anchor="middle" class="node-title">Outside</text>
  <text x="1100.0" y="532.0" text-anchor="middle" class="node-sub">ceiling ductwork</text>
  <rect x="320.5" y="223.0" width="119" height="20" rx="6" fill="#15151e" opacity="1"/>
  <text x="380.0" y="237.0" text-anchor="middle" class="arrow-label">top-right inlet</text>
  <rect x="293.0" y="380.5" width="98" height="20" rx="6" fill="#15151e" opacity="1"/>
  <text x="342.0" y="394.5" text-anchor="middle" class="arrow-label">4" flex duct</text>
  <rect x="815.0" y="411.5" width="140" height="20" rx="6" fill="#15151e" opacity="1"/>
  <text x="885.0" y="425.5" text-anchor="middle" class="arrow-label">bottom-left outlet</text>
  <line x1="40.0" y1="690.0" x2="70.0" y2="690.0" stroke="#c9c5b6" stroke-width="1.6" marker-end="url(#arrowA)"/>
  <text x="80.0" y="694.0" class="legend">Room air intake</text>
  <line x1="40.0" y1="712.0" x2="70.0" y2="712.0" stroke="#6fd1b4" stroke-width="1.6" marker-end="url(#arrowB)"/>
  <text x="80.0" y="716.0" class="legend">Humid fog push</text>
  <line x1="40.0" y1="734.0" x2="70.0" y2="734.0" stroke="#c9c5b6" stroke-width="1.6" marker-end="url(#arrowA)"/>
  <text x="80.0" y="738.0" class="legend">Exhaust path</text>
</svg>